<svg width="159" height="45" viewBox="0 0 159 45" fill="none" xmlns="http://www.w3.org/2000/svg">
<path fill-rule="evenodd" clip-rule="evenodd" d="M17.0711 8.91723C18.9464 9.82466 20 11.0554 20 12.3387H10L0 12.3387C0 11.0554 1.05357 9.82466 2.92893 8.91722C4.8043 8.00979 7.34784 7.5 10 7.5C12.6522 7.5 15.1957 8.00979 17.0711 8.91723ZM2.92893 36.0828C1.05357 35.1753 0 33.9446 0 32.6613H10L20 32.6613C20 33.9446 18.9464 35.1753 17.0711 36.0828C15.1957 36.9902 12.6522 37.5 10 37.5C7.34783 37.5 4.8043 36.9902 2.92893 36.0828ZM23 24.9194V28.7903H17V24.9194H23ZM6 16.2097H0V20.0806H6V16.2097ZM11 16.2097H23V20.0806H11V16.2097ZM12 24.9194H0V28.7903H12V24.9194Z" fill="#A6A6A6"/>
<path d="M33.99 24.63C33.99 22.95 34.32 21.46 34.98 20.16C35.66 18.86 36.58 17.86 37.74 17.16C38.9 16.46 40.19 16.11 41.61 16.11C42.69 16.11 43.72 16.35 44.7 16.83C45.68 17.29 46.46 17.91 47.04 18.69V10.8H51.3V33H47.04V30.54C46.52 31.36 45.79 32.02 44.85 32.52C43.91 33.02 42.82 33.27 41.58 33.27C40.18 33.27 38.9 32.91 37.74 32.19C36.58 31.47 35.66 30.46 34.98 29.16C34.32 27.84 33.99 26.33 33.99 24.63ZM47.07 24.69C47.07 23.67 46.87 22.8 46.47 22.08C46.07 21.34 45.53 20.78 44.85 20.4C44.17 20 43.44 19.8 42.66 19.8C41.88 19.8 41.16 19.99 40.5 20.37C39.84 20.75 39.3 21.31 38.88 22.05C38.48 22.77 38.28 23.63 38.28 24.63C38.28 25.63 38.48 26.51 38.88 27.27C39.3 28.01 39.84 28.58 40.5 28.98C41.18 29.38 41.9 29.58 42.66 29.58C43.44 29.58 44.17 29.39 44.85 29.01C45.53 28.61 46.07 28.05 46.47 27.33C46.87 26.59 47.07 25.71 47.07 24.69ZM70.852 24.33C70.852 24.93 70.812 25.47 70.732 25.95H58.582C58.682 27.15 59.102 28.09 59.842 28.77C60.582 29.45 61.492 29.79 62.572 29.79C64.132 29.79 65.242 29.12 65.902 27.78H70.432C69.952 29.38 69.032 30.7 67.672 31.74C66.312 32.76 64.642 33.27 62.662 33.27C61.062 33.27 59.622 32.92 58.342 32.22C57.082 31.5 56.092 30.49 55.372 29.19C54.672 27.89 54.322 26.39 54.322 24.69C54.322 22.97 54.672 21.46 55.372 20.16C56.072 18.86 57.052 17.86 58.312 17.16C59.572 16.46 61.022 16.11 62.662 16.11C64.242 16.11 65.652 16.45 66.892 17.13C68.152 17.81 69.122 18.78 69.802 20.04C70.502 21.28 70.852 22.71 70.852 24.33ZM66.502 23.13C66.482 22.05 66.092 21.19 65.332 20.55C64.572 19.89 63.642 19.56 62.542 19.56C61.502 19.56 60.622 19.88 59.902 20.52C59.202 21.14 58.772 22.01 58.612 23.13H66.502ZM80.2777 33.27C78.9177 33.27 77.6977 33.03 76.6177 32.55C75.5377 32.05 74.6777 31.38 74.0377 30.54C73.4177 29.7 73.0777 28.77 73.0177 27.75H77.2477C77.3277 28.39 77.6377 28.92 78.1777 29.34C78.7377 29.76 79.4277 29.97 80.2477 29.97C81.0477 29.97 81.6677 29.81 82.1077 29.49C82.5677 29.17 82.7977 28.76 82.7977 28.26C82.7977 27.72 82.5177 27.32 81.9577 27.06C81.4177 26.78 80.5477 26.48 79.3477 26.16C78.1077 25.86 77.0877 25.55 76.2877 25.23C75.5077 24.91 74.8277 24.42 74.2477 23.76C73.6877 23.1 73.4077 22.21 73.4077 21.09C73.4077 20.17 73.6677 19.33 74.1877 18.57C74.7277 17.81 75.4877 17.21 76.4677 16.77C77.4677 16.33 78.6377 16.11 79.9777 16.11C81.9577 16.11 83.5377 16.61 84.7177 17.61C85.8977 18.59 86.5477 19.92 86.6677 21.6H82.6477C82.5877 20.94 82.3077 20.42 81.8077 20.04C81.3277 19.64 80.6777 19.44 79.8577 19.44C79.0977 19.44 78.5077 19.58 78.0877 19.86C77.6877 20.14 77.4877 20.53 77.4877 21.03C77.4877 21.59 77.7677 22.02 78.3277 22.32C78.8877 22.6 79.7577 22.89 80.9377 23.19C82.1377 23.49 83.1277 23.8 83.9077 24.12C84.6877 24.44 85.3577 24.94 85.9177 25.62C86.4977 26.28 86.7977 27.16 86.8177 28.26C86.8177 29.22 86.5477 30.08 86.0077 30.84C85.4877 31.6 84.7277 32.2 83.7277 32.64C82.7477 33.06 81.5977 33.27 80.2777 33.27ZM89.1853 24.69C89.1853 22.97 89.5353 21.47 90.2353 20.19C90.9353 18.89 91.9053 17.89 93.1453 17.19C94.3853 16.47 95.8053 16.11 97.4053 16.11C99.4653 16.11 101.165 16.63 102.505 17.67C103.865 18.69 104.775 20.13 105.235 21.99H100.705C100.465 21.27 100.055 20.71 99.4753 20.31C98.9153 19.89 98.2153 19.68 97.3753 19.68C96.1753 19.68 95.2253 20.12 94.5253 21C93.8253 21.86 93.4753 23.09 93.4753 24.69C93.4753 26.27 93.8253 27.5 94.5253 28.38C95.2253 29.24 96.1753 29.67 97.3753 29.67C99.0753 29.67 100.185 28.91 100.705 27.39H105.235C104.775 29.19 103.865 30.62 102.505 31.68C101.145 32.74 99.4453 33.27 97.4053 33.27C95.8053 33.27 94.3853 32.92 93.1453 32.22C91.9053 31.5 90.9353 30.5 90.2353 29.22C89.5353 27.92 89.1853 26.41 89.1853 24.69ZM112.512 18.96C113.052 18.08 113.752 17.39 114.612 16.89C115.492 16.39 116.492 16.14 117.612 16.14V20.55H116.502C115.182 20.55 114.182 20.86 113.502 21.48C112.842 22.1 112.512 23.18 112.512 24.72V33H108.312V16.38H112.512V18.96ZM122.571 14.4C121.831 14.4 121.211 14.17 120.711 13.71C120.231 13.23 119.991 12.64 119.991 11.94C119.991 11.24 120.231 10.66 120.711 10.2C121.211 9.72 121.831 9.48 122.571 9.48C123.311 9.48 123.921 9.72 124.401 10.2C124.901 10.66 125.151 11.24 125.151 11.94C125.151 12.64 124.901 13.23 124.401 13.71C123.921 14.17 123.311 14.4 122.571 14.4ZM124.641 16.38V33H120.441V16.38H124.641ZM132.991 18.78C133.531 18.02 134.271 17.39 135.211 16.89C136.171 16.37 137.261 16.11 138.481 16.11C139.901 16.11 141.181 16.46 142.321 17.16C143.481 17.86 144.391 18.86 145.051 20.16C145.731 21.44 146.071 22.93 146.071 24.63C146.071 26.33 145.731 27.84 145.051 29.16C144.391 30.46 143.481 31.47 142.321 32.19C141.181 32.91 139.901 33.27 138.481 33.27C137.261 33.27 136.181 33.02 135.241 32.52C134.321 32.02 133.571 31.39 132.991 30.63V40.92H128.791V16.38H132.991V18.78ZM141.781 24.63C141.781 23.63 141.571 22.77 141.151 22.05C140.751 21.31 140.211 20.75 139.531 20.37C138.871 19.99 138.151 19.8 137.371 19.8C136.611 19.8 135.891 20 135.211 20.4C134.551 20.78 134.011 21.34 133.591 22.08C133.191 22.82 132.991 23.69 132.991 24.69C132.991 25.69 133.191 26.56 133.591 27.3C134.011 28.04 134.551 28.61 135.211 29.01C135.891 29.39 136.611 29.58 137.371 29.58C138.151 29.58 138.871 29.38 139.531 28.98C140.211 28.58 140.751 28.01 141.151 27.27C141.571 26.53 141.781 25.65 141.781 24.63ZM154.013 19.83V27.87C154.013 28.43 154.143 28.84 154.403 29.1C154.683 29.34 155.143 29.46 155.783 29.46H157.733V33H155.093C151.553 33 149.783 31.28 149.783 27.84V19.83H147.803V16.38H149.783V12.27H154.013V16.38H157.733V19.83H154.013Z" fill="#A6A6A6"/>
</svg>
