<svg width="215" height="45" viewBox="0 0 215 45" fill="none" xmlns="http://www.w3.org/2000/svg">
<circle cx="15" cy="22.5" r="15" fill="#A6A6A6"/>
<path d="M21 22.5C21 26.366 17.866 29.5 14 29.5C10.134 29.5 7 26.366 7 22.5C7 18.634 10.134 15.5 14 15.5C15.9587 15.5 17.7295 16.3045 19 17.601" stroke="white" stroke-width="2"/>
<path d="M17 24.5L21 22.5L23.5 26" stroke="white" stroke-width="2"/>
<path d="M48.58 16.11C49.82 16.11 50.91 16.36 51.85 16.86C52.79 17.34 53.53 17.97 54.07 18.75V16.38H58.3V33.12C58.3 34.66 57.99 36.03 57.37 37.23C56.75 38.45 55.82 39.41 54.58 40.11C53.34 40.83 51.84 41.19 50.08 41.19C47.72 41.19 45.78 40.64 44.26 39.54C42.76 38.44 41.91 36.94 41.71 35.04H45.88C46.1 35.8 46.57 36.4 47.29 36.84C48.03 37.3 48.92 37.53 49.96 37.53C51.18 37.53 52.17 37.16 52.93 36.42C53.69 35.7 54.07 34.6 54.07 33.12V30.54C53.53 31.32 52.78 31.97 51.82 32.49C50.88 33.01 49.8 33.27 48.58 33.27C47.18 33.27 45.9 32.91 44.74 32.19C43.58 31.47 42.66 30.46 41.98 29.16C41.32 27.84 40.99 26.33 40.99 24.63C40.99 22.95 41.32 21.46 41.98 20.16C42.66 18.86 43.57 17.86 44.71 17.16C45.87 16.46 47.16 16.11 48.58 16.11ZM54.07 24.69C54.07 23.67 53.87 22.8 53.47 22.08C53.07 21.34 52.53 20.78 51.85 20.4C51.17 20 50.44 19.8 49.66 19.8C48.88 19.8 48.16 19.99 47.5 20.37C46.84 20.75 46.3 21.31 45.88 22.05C45.48 22.77 45.28 23.63 45.28 24.63C45.28 25.63 45.48 26.51 45.88 27.27C46.3 28.01 46.84 28.58 47.5 28.98C48.18 29.38 48.9 29.58 49.66 29.58C50.44 29.58 51.17 29.39 51.85 29.01C52.53 28.61 53.07 28.05 53.47 27.33C53.87 26.59 54.07 25.71 54.07 24.69ZM66.602 18.96C67.142 18.08 67.842 17.39 68.702 16.89C69.582 16.39 70.582 16.14 71.702 16.14V20.55H70.592C69.272 20.55 68.272 20.86 67.592 21.48C66.932 22.1 66.602 23.18 66.602 24.72V33H62.402V16.38H66.602V18.96ZM73.4509 24.63C73.4509 22.95 73.7809 21.46 74.4409 20.16C75.1209 18.86 76.0309 17.86 77.1709 17.16C78.3309 16.46 79.6209 16.11 81.0409 16.11C82.2809 16.11 83.3609 16.36 84.2809 16.86C85.2209 17.36 85.9709 17.99 86.5309 18.75V16.38H90.7609V33H86.5309V30.57C85.9909 31.35 85.2409 32 84.2809 32.52C83.3409 33.02 82.2509 33.27 81.0109 33.27C79.6109 33.27 78.3309 32.91 77.1709 32.19C76.0309 31.47 75.1209 30.46 74.4409 29.16C73.7809 27.84 73.4509 26.33 73.4509 24.63ZM86.5309 24.69C86.5309 23.67 86.3309 22.8 85.9309 22.08C85.5309 21.34 84.9909 20.78 84.3109 20.4C83.6309 20 82.9009 19.8 82.1209 19.8C81.3409 19.8 80.6209 19.99 79.9609 20.37C79.3009 20.75 78.7609 21.31 78.3409 22.05C77.9409 22.77 77.7409 23.63 77.7409 24.63C77.7409 25.63 77.9409 26.51 78.3409 27.27C78.7609 28.01 79.3009 28.58 79.9609 28.98C80.6409 29.38 81.3609 29.58 82.1209 29.58C82.9009 29.58 83.6309 29.39 84.3109 29.01C84.9909 28.61 85.5309 28.05 85.9309 27.33C86.3309 26.59 86.5309 25.71 86.5309 24.69ZM115.503 16.14C117.543 16.14 119.183 16.77 120.423 18.03C121.683 19.27 122.313 21.01 122.313 23.25V33H118.113V23.82C118.113 22.52 117.783 21.53 117.123 20.85C116.463 20.15 115.563 19.8 114.423 19.8C113.283 19.8 112.373 20.15 111.693 20.85C111.033 21.53 110.703 22.52 110.703 23.82V33H106.503V23.82C106.503 22.52 106.173 21.53 105.513 20.85C104.853 20.15 103.953 19.8 102.813 19.8C101.653 19.8 100.733 20.15 100.053 20.85C99.393 21.53 99.063 22.52 99.063 23.82V33H94.863V16.38H99.063V18.39C99.603 17.69 100.293 17.14 101.133 16.74C101.993 16.34 102.933 16.14 103.953 16.14C105.253 16.14 106.413 16.42 107.433 16.98C108.453 17.52 109.243 18.3 109.803 19.32C110.343 18.36 111.123 17.59 112.143 17.01C113.183 16.43 114.303 16.14 115.503 16.14ZM146.939 16.14C148.979 16.14 150.619 16.77 151.859 18.03C153.119 19.27 153.749 21.01 153.749 23.25V33H149.549V23.82C149.549 22.52 149.219 21.53 148.559 20.85C147.899 20.15 146.999 19.8 145.859 19.8C144.719 19.8 143.809 20.15 143.129 20.85C142.469 21.53 142.139 22.52 142.139 23.82V33H137.939V23.82C137.939 22.52 137.609 21.53 136.949 20.85C136.289 20.15 135.389 19.8 134.249 19.8C133.089 19.8 132.169 20.15 131.489 20.85C130.829 21.53 130.499 22.52 130.499 23.82V33H126.299V16.38H130.499V18.39C131.039 17.69 131.729 17.14 132.569 16.74C133.429 16.34 134.369 16.14 135.389 16.14C136.689 16.14 137.849 16.42 138.869 16.98C139.889 17.52 140.679 18.3 141.239 19.32C141.779 18.36 142.559 17.59 143.579 17.01C144.619 16.43 145.739 16.14 146.939 16.14ZM156.654 24.63C156.654 22.95 156.984 21.46 157.644 20.16C158.324 18.86 159.234 17.86 160.374 17.16C161.534 16.46 162.824 16.11 164.244 16.11C165.484 16.11 166.564 16.36 167.484 16.86C168.424 17.36 169.174 17.99 169.734 18.75V16.38H173.964V33H169.734V30.57C169.194 31.35 168.444 32 167.484 32.52C166.544 33.02 165.454 33.27 164.214 33.27C162.814 33.27 161.534 32.91 160.374 32.19C159.234 31.47 158.324 30.46 157.644 29.16C156.984 27.84 156.654 26.33 156.654 24.63ZM169.734 24.69C169.734 23.67 169.534 22.8 169.134 22.08C168.734 21.34 168.194 20.78 167.514 20.4C166.834 20 166.104 19.8 165.324 19.8C164.544 19.8 163.824 19.99 163.164 20.37C162.504 20.75 161.964 21.31 161.544 22.05C161.144 22.77 160.944 23.63 160.944 24.63C160.944 25.63 161.144 26.51 161.544 27.27C161.964 28.01 162.504 28.58 163.164 28.98C163.844 29.38 164.564 29.58 165.324 29.58C166.104 29.58 166.834 29.39 167.514 29.01C168.194 28.61 168.734 28.05 169.134 27.33C169.534 26.59 169.734 25.71 169.734 24.69ZM182.266 18.96C182.806 18.08 183.506 17.39 184.366 16.89C185.246 16.39 186.246 16.14 187.366 16.14V20.55H186.256C184.936 20.55 183.936 20.86 183.256 21.48C182.596 22.1 182.266 23.18 182.266 24.72V33H178.066V16.38H182.266V18.96ZM194.395 10.8V33H190.195V10.8H194.395ZM214.445 16.38L204.155 40.86H199.685L203.285 32.58L196.625 16.38H201.335L205.625 27.99L209.975 16.38H214.445Z" fill="#A6A6A6"/>
</svg>
