<svg width="197" height="45" viewBox="0 0 197 45" fill="none" xmlns="http://www.w3.org/2000/svg">
<rect y="7.5" width="30" height="30" rx="3" fill="#A6A6A6"/>
<rect x="4" y="14.5" width="2" height="12" fill="white"/>
<rect x="9" y="11.5" width="2" height="18" fill="white"/>
<rect x="14" y="11.5" width="2" height="18" fill="white"/>
<rect x="19" y="11.5" width="2" height="18" fill="white"/>
<path d="M5 31.5C7.83333 33.7639 16 36.9333 26 31.5" stroke="white" stroke-width="2" stroke-linecap="round"/>
<rect x="24" y="14.5" width="2" height="12" fill="white"/>
<path d="M46.27 12.06V33H42.07V12.06H46.27ZM68.3296 33H64.1296L54.6196 18.63V33H50.4196V12.03H54.6196L64.1296 26.43V12.03H68.3296V33ZM86.7302 12.06V15.45H81.1502V33H76.9502V15.45H71.3702V12.06H86.7302ZM93.9946 15.45V20.7H101.045V24.03H93.9946V29.58H101.945V33H89.7946V12.03H101.945V15.45H93.9946ZM116.561 33L111.941 24.84H109.961V33H105.761V12.06H113.621C115.241 12.06 116.621 12.35 117.761 12.93C118.901 13.49 119.751 14.26 120.311 15.24C120.891 16.2 121.181 17.28 121.181 18.48C121.181 19.86 120.781 21.11 119.981 22.23C119.181 23.33 117.991 24.09 116.411 24.51L121.421 33H116.561ZM109.961 21.69H113.471C114.611 21.69 115.461 21.42 116.021 20.88C116.581 20.32 116.861 19.55 116.861 18.57C116.861 17.61 116.581 16.87 116.021 16.35C115.461 15.81 114.611 15.54 113.471 15.54H109.961V21.69ZM123.96 22.5C123.96 20.44 124.42 18.6 125.34 16.98C126.28 15.34 127.55 14.07 129.15 13.17C130.77 12.25 132.58 11.79 134.58 11.79C136.92 11.79 138.97 12.39 140.73 13.59C142.49 14.79 143.72 16.45 144.42 18.57H139.59C139.11 17.57 138.43 16.82 137.55 16.32C136.69 15.82 135.69 15.57 134.55 15.57C133.33 15.57 132.24 15.86 131.28 16.44C130.34 17 129.6 17.8 129.06 18.84C128.54 19.88 128.28 21.1 128.28 22.5C128.28 23.88 128.54 25.1 129.06 26.16C129.6 27.2 130.34 28.01 131.28 28.59C132.24 29.15 133.33 29.43 134.55 29.43C135.69 29.43 136.69 29.18 137.55 28.68C138.43 28.16 139.11 27.4 139.59 26.4H144.42C143.72 28.54 142.49 30.21 140.73 31.41C138.99 32.59 136.94 33.18 134.58 33.18C132.58 33.18 130.77 32.73 129.15 31.83C127.55 30.91 126.28 29.64 125.34 28.02C124.42 26.4 123.96 24.56 123.96 22.5ZM157.728 33.21C155.768 33.21 153.968 32.75 152.328 31.83C150.688 30.91 149.388 29.64 148.428 28.02C147.468 26.38 146.988 24.53 146.988 22.47C146.988 20.43 147.468 18.6 148.428 16.98C149.388 15.34 150.688 14.06 152.328 13.14C153.968 12.22 155.768 11.76 157.728 11.76C159.708 11.76 161.508 12.22 163.128 13.14C164.768 14.06 166.058 15.34 166.998 16.98C167.958 18.6 168.438 20.43 168.438 22.47C168.438 24.53 167.958 26.38 166.998 28.02C166.058 29.64 164.768 30.91 163.128 31.83C161.488 32.75 159.688 33.21 157.728 33.21ZM157.728 29.46C158.988 29.46 160.098 29.18 161.058 28.62C162.018 28.04 162.768 27.22 163.308 26.16C163.848 25.1 164.118 23.87 164.118 22.47C164.118 21.07 163.848 19.85 163.308 18.81C162.768 17.75 162.018 16.94 161.058 16.38C160.098 15.82 158.988 15.54 157.728 15.54C156.468 15.54 155.348 15.82 154.368 16.38C153.408 16.94 152.658 17.75 152.118 18.81C151.578 19.85 151.308 21.07 151.308 22.47C151.308 23.87 151.578 25.1 152.118 26.16C152.658 27.22 153.408 28.04 154.368 28.62C155.348 29.18 156.468 29.46 157.728 29.46ZM194.392 12.06V33H190.192V19.38L184.582 33H181.402L175.762 19.38V33H171.562V12.06H176.332L182.992 27.63L189.652 12.06H194.392Z" fill="#A6A6A6"/>
</svg>
