<svg width="149" height="45" viewBox="0 0 149 45" fill="none" xmlns="http://www.w3.org/2000/svg">
<path d="M28.3878 18.4545V33H26.044L19.1903 23.0923H19.0696V33H16.4347V18.4545H18.7926L25.6392 28.3693H25.767V18.4545H28.3878Z" fill="#A6A6A6"/>
<rect x="9" y="13" width="28" height="26" stroke="#A6A6A6" stroke-width="2"/>
<path d="M2.66145 6L8.37574 11H35.3386L29.6243 6H2.66145Z" stroke="#A6A6A6" stroke-width="2"/>
<path d="M8 12L0 5V33L8 40V12Z" fill="#A6A6A6"/>
<path d="M67.98 33H63.78L54.27 18.63V33H50.07V12.03H54.27L63.78 26.43V12.03H67.98V33ZM79.5105 33.27C77.9105 33.27 76.4705 32.92 75.1905 32.22C73.9105 31.5 72.9005 30.49 72.1605 29.19C71.4405 27.89 71.0805 26.39 71.0805 24.69C71.0805 22.99 71.4505 21.49 72.1905 20.19C72.9505 18.89 73.9805 17.89 75.2805 17.19C76.5805 16.47 78.0305 16.11 79.6305 16.11C81.2305 16.11 82.6805 16.47 83.9805 17.19C85.2805 17.89 86.3005 18.89 87.0405 20.19C87.8005 21.49 88.1805 22.99 88.1805 24.69C88.1805 26.39 87.7905 27.89 87.0105 29.19C86.2505 30.49 85.2105 31.5 83.8905 32.22C82.5905 32.92 81.1305 33.27 79.5105 33.27ZM79.5105 29.61C80.2705 29.61 80.9805 29.43 81.6405 29.07C82.3205 28.69 82.8605 28.13 83.2605 27.39C83.6605 26.65 83.8605 25.75 83.8605 24.69C83.8605 23.11 83.4405 21.9 82.6005 21.06C81.7805 20.2 80.7705 19.77 79.5705 19.77C78.3705 19.77 77.3605 20.2 76.5405 21.06C75.7405 21.9 75.3405 23.11 75.3405 24.69C75.3405 26.27 75.7305 27.49 76.5105 28.35C77.3105 29.19 78.3105 29.61 79.5105 29.61ZM96.1514 19.83V27.87C96.1514 28.43 96.2814 28.84 96.5414 29.1C96.8214 29.34 97.2814 29.46 97.9214 29.46H99.8714V33H97.2314C93.6914 33 91.9214 31.28 91.9214 27.84V19.83H89.9414V16.38H91.9214V12.27H96.1514V16.38H99.8714V19.83H96.1514ZM105.022 14.4C104.282 14.4 103.662 14.17 103.162 13.71C102.682 13.23 102.442 12.64 102.442 11.94C102.442 11.24 102.682 10.66 103.162 10.2C103.662 9.72 104.282 9.48 105.022 9.48C105.762 9.48 106.372 9.72 106.852 10.2C107.352 10.66 107.602 11.24 107.602 11.94C107.602 12.64 107.352 13.23 106.852 13.71C106.372 14.17 105.762 14.4 105.022 14.4ZM107.092 16.38V33H102.892V16.38H107.092ZM118.622 33.27C117.022 33.27 115.582 32.92 114.302 32.22C113.022 31.5 112.012 30.49 111.272 29.19C110.552 27.89 110.192 26.39 110.192 24.69C110.192 22.99 110.562 21.49 111.302 20.19C112.062 18.89 113.092 17.89 114.392 17.19C115.692 16.47 117.142 16.11 118.742 16.11C120.342 16.11 121.792 16.47 123.092 17.19C124.392 17.89 125.412 18.89 126.152 20.19C126.912 21.49 127.292 22.99 127.292 24.69C127.292 26.39 126.902 27.89 126.122 29.19C125.362 30.49 124.322 31.5 123.002 32.22C121.702 32.92 120.242 33.27 118.622 33.27ZM118.622 29.61C119.382 29.61 120.092 29.43 120.752 29.07C121.432 28.69 121.972 28.13 122.372 27.39C122.772 26.65 122.972 25.75 122.972 24.69C122.972 23.11 122.552 21.9 121.712 21.06C120.892 20.2 119.882 19.77 118.682 19.77C117.482 19.77 116.472 20.2 115.652 21.06C114.852 21.9 114.452 23.11 114.452 24.69C114.452 26.27 114.842 27.49 115.622 28.35C116.422 29.19 117.422 29.61 118.622 29.61ZM139.583 16.14C141.563 16.14 143.163 16.77 144.383 18.03C145.603 19.27 146.213 21.01 146.213 23.25V33H142.013V23.82C142.013 22.5 141.683 21.49 141.023 20.79C140.363 20.07 139.463 19.71 138.323 19.71C137.163 19.71 136.243 20.07 135.563 20.79C134.903 21.49 134.573 22.5 134.573 23.82V33H130.373V16.38H134.573V18.45C135.133 17.73 135.843 17.17 136.703 16.77C137.583 16.35 138.543 16.14 139.583 16.14Z" fill="#A6A6A6"/>
</svg>
