<svg width="24" height="24" viewBox="0 0 24 24" fill="none" xmlns="http://www.w3.org/2000/svg">
<path d="M12 10C13.0609 10 14.0783 9.57857 14.8284 8.82843C15.5786 8.07828 16 7.06087 16 6C16 4.93913 15.5786 3.92172 14.8284 3.17157C14.0783 2.42143 13.0609 2 12 2C10.9391 2 9.92172 2.42143 9.17157 3.17157C8.42143 3.92172 8 4.93913 8 6C8 7.06087 8.42143 8.07828 9.17157 8.82843C9.92172 9.57857 10.9391 10 12 10ZM5.5 13C6.16304 13 6.79893 12.7366 7.26777 12.2678C7.73661 11.7989 8 11.163 8 10.5C8 9.83696 7.73661 9.20107 7.26777 8.73223C6.79893 8.26339 6.16304 8 5.5 8C4.83696 8 4.20107 8.26339 3.73223 8.73223C3.26339 9.20107 3 9.83696 3 10.5C3 11.163 3.26339 11.7989 3.73223 12.2678C4.20107 12.7366 4.83696 13 5.5 13ZM21 10.5C21 11.163 20.7366 11.7989 20.2678 12.2678C19.7989 12.7366 19.163 13 18.5 13C17.837 13 17.2011 12.7366 16.7322 12.2678C16.2634 11.7989 16 11.163 16 10.5C16 9.83696 16.2634 9.20107 16.7322 8.73223C17.2011 8.26339 17.837 8 18.5 8C19.163 8 19.7989 8.26339 20.2678 8.73223C20.7366 9.20107 21 9.83696 21 10.5ZM12 11C13.3261 11 14.5979 11.5268 15.5355 12.4645C16.4732 13.4021 17 14.6739 17 16V22H7V16C7 14.6739 7.52678 13.4021 8.46447 12.4645C9.40215 11.5268 10.6739 11 12 11ZM5 16C5 15.307 5.1 14.638 5.288 14.006L5.118 14.02C4.26088 14.1141 3.46866 14.5213 2.89326 15.1635C2.31786 15.8057 1.99978 16.6377 2 17.5V22H5V16ZM22 22V17.5C22.0001 16.6084 21.6599 15.7503 21.0489 15.101C20.4378 14.4516 19.602 14.06 18.712 14.006C18.899 14.638 19 15.307 19 16V22H22Z" fill="black"/>
</svg>
