<svg width="187" height="45" viewBox="0 0 187 45" fill="none" xmlns="http://www.w3.org/2000/svg">
<rect x="11" y="6.5" width="12" height="9" fill="#A6A6A6"/>
<rect y="29.5" width="34" height="9" fill="#A6A6A6"/>
<rect x="24" y="20.5" width="10" height="18" fill="#A6A6A6"/>
<rect y="20.5" width="10" height="18" fill="#A6A6A6"/>
<path d="M50.5625 12.06V25.02C50.5625 26.44 50.9325 27.53 51.6725 28.29C52.4125 29.03 53.4525 29.4 54.7925 29.4C56.1525 29.4 57.2025 29.03 57.9425 28.29C58.6825 27.53 59.0525 26.44 59.0525 25.02V12.06H63.2825V24.99C63.2825 26.77 62.8925 28.28 62.1125 29.52C61.3525 30.74 60.3225 31.66 59.0225 32.28C57.7425 32.9 56.3125 33.21 54.7325 33.21C53.1725 33.21 51.7525 32.9 50.4725 32.28C49.2125 31.66 48.2125 30.74 47.4725 29.52C46.7325 28.28 46.3625 26.77 46.3625 24.99V12.06H50.5625ZM76.5505 16.14C78.5305 16.14 80.1305 16.77 81.3505 18.03C82.5705 19.27 83.1805 21.01 83.1805 23.25V33H78.9805V23.82C78.9805 22.5 78.6505 21.49 77.9905 20.79C77.3305 20.07 76.4305 19.71 75.2905 19.71C74.1305 19.71 73.2105 20.07 72.5305 20.79C71.8705 21.49 71.5405 22.5 71.5405 23.82V33H67.3405V16.38H71.5405V18.45C72.1005 17.73 72.8105 17.17 73.6705 16.77C74.5505 16.35 75.5105 16.14 76.5505 16.14ZM93.5345 33.27C92.1745 33.27 90.9545 33.03 89.8745 32.55C88.7945 32.05 87.9345 31.38 87.2945 30.54C86.6745 29.7 86.3345 28.77 86.2745 27.75H90.5045C90.5845 28.39 90.8945 28.92 91.4345 29.34C91.9945 29.76 92.6845 29.97 93.5045 29.97C94.3045 29.97 94.9245 29.81 95.3645 29.49C95.8245 29.17 96.0545 28.76 96.0545 28.26C96.0545 27.72 95.7745 27.32 95.2145 27.06C94.6745 26.78 93.8045 26.48 92.6045 26.16C91.3645 25.86 90.3445 25.55 89.5445 25.23C88.7645 24.91 88.0845 24.42 87.5045 23.76C86.9445 23.1 86.6645 22.21 86.6645 21.09C86.6645 20.17 86.9245 19.33 87.4445 18.57C87.9845 17.81 88.7445 17.21 89.7245 16.77C90.7245 16.33 91.8945 16.11 93.2345 16.11C95.2145 16.11 96.7945 16.61 97.9745 17.61C99.1545 18.59 99.8045 19.92 99.9245 21.6H95.9045C95.8445 20.94 95.5645 20.42 95.0645 20.04C94.5845 19.64 93.9345 19.44 93.1145 19.44C92.3545 19.44 91.7645 19.58 91.3445 19.86C90.9445 20.14 90.7445 20.53 90.7445 21.03C90.7445 21.59 91.0245 22.02 91.5845 22.32C92.1445 22.6 93.0145 22.89 94.1945 23.19C95.3945 23.49 96.3845 23.8 97.1645 24.12C97.9445 24.44 98.6145 24.94 99.1745 25.62C99.7545 26.28 100.054 27.16 100.074 28.26C100.074 29.22 99.8045 30.08 99.2645 30.84C98.7445 31.6 97.9845 32.2 96.9845 32.64C96.0045 33.06 94.8545 33.27 93.5345 33.27ZM107.722 18.78C108.262 18.02 109.002 17.39 109.942 16.89C110.902 16.37 111.992 16.11 113.212 16.11C114.632 16.11 115.912 16.46 117.052 17.16C118.212 17.86 119.122 18.86 119.782 20.16C120.462 21.44 120.802 22.93 120.802 24.63C120.802 26.33 120.462 27.84 119.782 29.16C119.122 30.46 118.212 31.47 117.052 32.19C115.912 32.91 114.632 33.27 113.212 33.27C111.992 33.27 110.912 33.02 109.972 32.52C109.052 32.02 108.302 31.39 107.722 30.63V40.92H103.522V16.38H107.722V18.78ZM116.512 24.63C116.512 23.63 116.302 22.77 115.882 22.05C115.482 21.31 114.942 20.75 114.262 20.37C113.602 19.99 112.882 19.8 112.102 19.8C111.342 19.8 110.622 20 109.942 20.4C109.282 20.78 108.742 21.34 108.322 22.08C107.922 22.82 107.722 23.69 107.722 24.69C107.722 25.69 107.922 26.56 108.322 27.3C108.742 28.04 109.282 28.61 109.942 29.01C110.622 29.39 111.342 29.58 112.102 29.58C112.882 29.58 113.602 29.38 114.262 28.98C114.942 28.58 115.482 28.01 115.882 27.27C116.302 26.53 116.512 25.65 116.512 24.63ZM128.054 10.8V33H123.854V10.8H128.054ZM131.124 24.63C131.124 22.95 131.454 21.46 132.114 20.16C132.794 18.86 133.704 17.86 134.844 17.16C136.004 16.46 137.294 16.11 138.714 16.11C139.954 16.11 141.034 16.36 141.954 16.86C142.894 17.36 143.644 17.99 144.204 18.75V16.38H148.434V33H144.204V30.57C143.664 31.35 142.914 32 141.954 32.52C141.014 33.02 139.924 33.27 138.684 33.27C137.284 33.27 136.004 32.91 134.844 32.19C133.704 31.47 132.794 30.46 132.114 29.16C131.454 27.84 131.124 26.33 131.124 24.63ZM144.204 24.69C144.204 23.67 144.004 22.8 143.604 22.08C143.204 21.34 142.664 20.78 141.984 20.4C141.304 20 140.574 19.8 139.794 19.8C139.014 19.8 138.294 19.99 137.634 20.37C136.974 20.75 136.434 21.31 136.014 22.05C135.614 22.77 135.414 23.63 135.414 24.63C135.414 25.63 135.614 26.51 136.014 27.27C136.434 28.01 136.974 28.58 137.634 28.98C138.314 29.38 139.034 29.58 139.794 29.58C140.574 29.58 141.304 29.39 141.984 29.01C142.664 28.61 143.204 28.05 143.604 27.33C144.004 26.59 144.204 25.71 144.204 24.69ZM158.896 33.27C157.536 33.27 156.316 33.03 155.236 32.55C154.156 32.05 153.296 31.38 152.656 30.54C152.036 29.7 151.696 28.77 151.636 27.75H155.866C155.946 28.39 156.256 28.92 156.796 29.34C157.356 29.76 158.046 29.97 158.866 29.97C159.666 29.97 160.286 29.81 160.726 29.49C161.186 29.17 161.416 28.76 161.416 28.26C161.416 27.72 161.136 27.32 160.576 27.06C160.036 26.78 159.166 26.48 157.966 26.16C156.726 25.86 155.706 25.55 154.906 25.23C154.126 24.91 153.446 24.42 152.866 23.76C152.306 23.1 152.026 22.21 152.026 21.09C152.026 20.17 152.286 19.33 152.806 18.57C153.346 17.81 154.106 17.21 155.086 16.77C156.086 16.33 157.256 16.11 158.596 16.11C160.576 16.11 162.156 16.61 163.336 17.61C164.516 18.59 165.166 19.92 165.286 21.6H161.266C161.206 20.94 160.926 20.42 160.426 20.04C159.946 19.64 159.296 19.44 158.476 19.44C157.716 19.44 157.126 19.58 156.706 19.86C156.306 20.14 156.106 20.53 156.106 21.03C156.106 21.59 156.386 22.02 156.946 22.32C157.506 22.6 158.376 22.89 159.556 23.19C160.756 23.49 161.746 23.8 162.526 24.12C163.306 24.44 163.976 24.94 164.536 25.62C165.116 26.28 165.416 27.16 165.436 28.26C165.436 29.22 165.166 30.08 164.626 30.84C164.106 31.6 163.346 32.2 162.346 32.64C161.366 33.06 160.216 33.27 158.896 33.27ZM178.243 16.14C179.503 16.14 180.623 16.42 181.603 16.98C182.583 17.52 183.343 18.33 183.883 19.41C184.443 20.47 184.723 21.75 184.723 23.25V33H180.523V23.82C180.523 22.5 180.193 21.49 179.533 20.79C178.873 20.07 177.973 19.71 176.833 19.71C175.673 19.71 174.753 20.07 174.073 20.79C173.413 21.49 173.083 22.5 173.083 23.82V33H168.883V10.8H173.083V18.45C173.623 17.73 174.343 17.17 175.243 16.77C176.143 16.35 177.143 16.14 178.243 16.14Z" fill="#A6A6A6"/>
</svg>
