<?xml version="1.0" encoding="utf-8"?>
<!-- Generator: Adobe Illustrator 26.3.1, SVG Export Plug-In . SVG Version: 6.00 Build 0)  -->
<svg version="1.1" id="Слой_1" xmlns="http://www.w3.org/2000/svg" xmlns:xlink="http://www.w3.org/1999/xlink" x="0px" y="0px"
	 viewBox="0 0 700 700" style="enable-background:new 0 0 700 700;" xml:space="preserve">
<style type="text/css">
	.st0{fill:#020203;}
	.st1{fill:#FFFFFF;}
</style>
<g>
	<path class="st0" d="M466.7,134.4H234.2c-22.1,0-40,17.9-40,40v232.5c0,22.1,17.9,40,40,40h232.5c22.1,0,40-17.9,40-40V174.4
		C506.7,152.3,488.8,134.4,466.7,134.4z M492.5,407.2c0,14-11.4,25.4-25.4,25.4H234c-14,0-25.4-11.4-25.4-25.4V174.1
		c0-14,11.4-25.4,25.4-25.4h233.1c14,0,25.4,11.4,25.4,25.4V407.2z"/>
	<path class="st0" d="M306.3,526.8h12.8l-6.4-17.6L306.3,526.8z"/>
	<path class="st0" d="M466.7,473h-38.1H392c-1.6,0-3.2-0.4-4.6-1.1L355.1,455c-2.9-1.5-6.4-1.5-9.3,0l-32.3,16.9
		c-1.4,0.8-3,1.1-4.6,1.1h-36.6h-38.1c-22.1,0-40,17.9-40,40v13.4c0,22.1,17.9,40,40,40h232.5c22.1,0,40-17.9,40-40V513
		C506.7,490.9,488.8,473,466.7,473z M257.9,535.3c-0.6,1.2-1.5,2.3-2.7,3.2s-2.5,1.6-4.2,2c-1.6,0.5-3.4,0.7-5.4,0.7
		c-1.7,0-3.5-0.2-5.2-0.7s-3.2-1.2-4.6-2.2c-1.4-1-2.5-2.2-3.3-3.6c-0.8-1.4-1.2-3.1-1.2-5h5c0,1.3,0.3,2.4,0.8,3.3s1.2,1.7,2,2.3
		c0.9,0.6,1.9,1.1,3,1.4c1.1,0.3,2.3,0.4,3.5,0.4c1.7,0,3.2-0.2,4.4-0.7s2.1-1.2,2.7-2.1s1-2,1-3.2c0-0.9-0.1-1.7-0.4-2.3
		c-0.3-0.7-0.7-1.3-1.4-1.9s-1.6-1.1-2.7-1.6c-1.2-0.5-2.6-1-4.4-1.5c-1.9-0.5-3.5-1.2-5-1.8c-1.5-0.7-2.8-1.5-3.9-2.4
		c-1.1-0.9-1.9-1.9-2.5-3c-0.6-1.1-0.9-2.4-0.9-3.9c0-1.5,0.3-2.8,0.9-4.1c0.6-1.3,1.5-2.3,2.6-3.2s2.5-1.7,4.1-2.2
		c1.6-0.5,3.3-0.8,5.3-0.8c2.8,0,5.2,0.5,7.2,1.6s3.5,2.5,4.5,4.2c1,1.7,1.6,3.6,1.6,5.5h-5c0-1.4-0.3-2.7-0.9-3.8
		c-0.6-1.1-1.5-2-2.7-2.6c-1.2-0.6-2.8-1-4.7-1c-1.8,0-3.2,0.3-4.4,0.8s-2,1.3-2.6,2.2c-0.6,0.9-0.8,2-0.8,3.1
		c0,0.8,0.2,1.5,0.5,2.2c0.3,0.6,0.9,1.2,1.6,1.8s1.6,1.1,2.7,1.5c1.1,0.5,2.5,0.9,4,1.3c2.1,0.6,4,1.3,5.5,2
		c1.6,0.7,2.8,1.6,3.8,2.5c1,0.9,1.8,2,2.3,3.1c0.5,1.2,0.8,2.5,0.8,3.9C258.8,532.7,258.5,534.1,257.9,535.3z M269.4,529
		c0.4,1.6,1,3,1.8,4.3c0.8,1.2,1.8,2.2,3,2.9c1.2,0.7,2.7,1,4.4,1c2.1,0,3.8-0.3,5.1-1c1.3-0.7,2.2-1.6,2.8-2.9
		c0.7-1.3,1.1-2.8,1.4-4.5h5c-0.3,2.4-0.9,4.5-2,6.4c-1.1,1.9-2.7,3.4-4.7,4.5c-2,1.1-4.5,1.6-7.6,1.6c-2.2,0-4.2-0.4-6-1.2
		c-1.8-0.8-3.3-2-4.6-3.5c-1.3-1.5-2.3-3.4-3-5.5c-0.7-2.2-1-4.6-1-7.2v-3.8c0-2.6,0.3-5,1-7.2c0.7-2.2,1.7-4,3-5.5
		c1.3-1.5,2.9-2.7,4.8-3.5c1.9-0.8,4-1.2,6.3-1.2c2.8,0,5.3,0.5,7.2,1.6c2,1.1,3.5,2.6,4.6,4.5c1.1,1.9,1.8,4.1,2,6.6h-5
		c-0.2-1.8-0.7-3.3-1.3-4.5c-0.7-1.3-1.6-2.3-2.8-2.9c-1.2-0.7-2.8-1-4.7-1c-1.7,0-3.2,0.3-4.4,1c-1.3,0.6-2.3,1.5-3.2,2.7
		c-0.8,1.2-1.5,2.6-1.9,4.2s-0.6,3.5-0.6,5.5v3.8C268.9,525.6,269.1,527.4,269.4,529z M324.1,540.8l-3.6-9.9h-15.8l-3.6,9.9H296
		l14.4-37.7h1.1h2.2h1.1l14.4,37.7H324.1z M363.3,540.8h-5l-19-29.1v29.1h-5v-37.7h5l19.1,29.2v-29.2h4.9V540.8z M422.9,540.8h-5
		v-14.7l0.5-15.8L406,540.8h-3.8l-12.4-30.5l0.5,15.8v14.7h-5v-37.7h1.6h2.7h2.1l12.4,30.7l12.3-30.7h2.1h2.7h1.6L422.9,540.8z
		 M466.8,503.1l-0.3,27.1h-4.3l-0.4-27.1H466.8z M455.6,540.8h-19h-1h-4v-37.7h4h1h18.7v4.1h-18.7v12.1h16.3v4.1h-16.3v13.4h19
		V540.8z M466.5,540.3c-0.5,0.5-1.2,0.8-2.1,0.8c-0.9,0-1.6-0.3-2.1-0.8s-0.7-1.2-0.7-1.9c0-0.8,0.2-1.4,0.7-2
		c0.5-0.5,1.2-0.8,2.1-0.8c0.9,0,1.6,0.3,2.1,0.8s0.8,1.2,0.8,2C467.3,539.1,467,539.7,466.5,540.3z"/>
	<path class="st1" d="M466.3,530.2l0.4-27.1h-5l0.3,27.1H466.3z"/>
	<path class="st1" d="M466.4,536.4c-0.5-0.5-1.2-0.8-2.1-0.8s-1.6,0.3-2.1,0.8s-0.7,1.2-0.7,2s0.2,1.4,0.7,1.9s1.2,0.8,2.1,0.8
		s1.6-0.3,2.1-0.8s0.8-1.2,0.8-1.9C467.2,537.6,466.9,537,466.4,536.4z"/>
	<path class="st1" d="M436.6,523.4h16.3v-4.1h-16.3v-12.1h18.7v-4.1h-18.7h-1.1h-3.9v37.7h3.9h1.1h18.9v-4h-18.9V523.4z"/>
	<path class="st1" d="M418.5,503.1h-2.1L404,533.9l-12.3-30.8h-2.2h-2.7h-1.5v37.7h4.9v-14.7l-0.5-15.8l12.4,30.5h3.8l12.4-30.5
		l-0.5,15.8v14.7h5v-37.7h-1.6H418.5z"/>
	<path class="st1" d="M358.3,532.3l-19.1-29.2h-5v37.7h5v-29.1l19,29.1h5v-37.7h-4.9V532.3z"/>
	<path class="st1" d="M313.7,503.1h-2.2h-1.1L296,540.8h5.1l3.6-9.9h15.8l3.6,9.9h5.1l-14.4-37.7H313.7z M306.2,526.9l6.4-17.6
		l6.4,17.6H306.2z"/>
	<path class="st1" d="M269.4,514.6c0.4-1.6,1.1-3.1,1.9-4.2c0.9-1.2,1.9-2.1,3.2-2.7c1.3-0.6,2.8-1,4.4-1c2,0,3.5,0.3,4.7,1
		c1.2,0.7,2.1,1.7,2.8,2.9c0.7,1.3,1.1,2.8,1.3,4.5h5c-0.3-2.5-0.9-4.7-2-6.6s-2.6-3.4-4.6-4.5s-4.4-1.6-7.2-1.6
		c-2.3,0-4.4,0.4-6.3,1.2c-1.9,0.8-3.5,2-4.8,3.5c-1.3,1.5-2.3,3.4-3,5.5c-0.7,2.1-1,4.5-1,7.2v3.8c0,2.6,0.3,5,1,7.2
		c0.7,2.1,1.7,4,3,5.5c1.3,1.5,2.8,2.7,4.6,3.5c1.8,0.8,3.8,1.2,6,1.2c3,0,5.5-0.5,7.6-1.6c2-1.1,3.6-2.6,4.7-4.5s1.8-4,2-6.4h-5
		c-0.3,1.8-0.7,3.3-1.4,4.5c-0.6,1.3-1.6,2.2-2.8,2.9c-1.3,0.7-3,1-5.1,1c-1.7,0-3.1-0.3-4.4-1c-1.2-0.7-2.2-1.7-3-2.9
		c-0.8-1.2-1.4-2.6-1.8-4.3c-0.4-1.6-0.6-3.4-0.6-5.2v-3.8C268.8,518,269,516.2,269.4,514.6z"/>
	<path class="st1" d="M255.7,524.2c-1-0.9-2.3-1.8-3.8-2.5c-1.6-0.7-3.4-1.4-5.5-2c-1.6-0.4-2.9-0.9-4-1.3c-1.1-0.5-2-1-2.7-1.5
		s-1.2-1.1-1.6-1.8c-0.3-0.7-0.5-1.4-0.5-2.2c0-1.2,0.3-2.2,0.8-3.1c0.6-0.9,1.4-1.6,2.6-2.2c1.2-0.5,2.6-0.8,4.4-0.8
		c1.9,0,3.4,0.3,4.7,1c1.2,0.6,2.1,1.5,2.7,2.6c0.6,1.1,0.9,2.3,0.9,3.8h5c0-2-0.5-3.8-1.6-5.5c-1-1.7-2.5-3.1-4.5-4.2
		s-4.4-1.6-7.2-1.6c-1.9,0-3.7,0.3-5.3,0.8c-1.6,0.5-2.9,1.3-4.1,2.2c-1.1,0.9-2,2-2.6,3.2c-0.6,1.2-0.9,2.6-0.9,4.1
		c0,1.5,0.3,2.8,0.9,3.9c0.6,1.1,1.4,2.1,2.5,3c1.1,0.9,2.4,1.7,3.9,2.4c1.5,0.7,3.2,1.3,5,1.8c1.8,0.5,3.2,1,4.4,1.5s2.1,1,2.7,1.6
		c0.7,0.6,1.1,1.2,1.4,1.9c0.3,0.7,0.4,1.4,0.4,2.3c0,1.2-0.3,2.3-1,3.2c-0.6,0.9-1.5,1.6-2.7,2.1s-2.7,0.7-4.4,0.7
		c-1.2,0-2.4-0.1-3.5-0.4c-1.1-0.3-2.1-0.7-3-1.4c-0.9-0.6-1.5-1.4-2-2.3s-0.8-2-0.8-3.3h-5c0,1.9,0.4,3.5,1.2,5
		c0.8,1.4,1.9,2.6,3.3,3.6c1.4,1,2.9,1.7,4.6,2.2s3.4,0.7,5.2,0.7c2,0,3.8-0.2,5.4-0.7c1.6-0.5,3-1.2,4.2-2c1.2-0.9,2-1.9,2.7-3.2
		c0.6-1.2,0.9-2.6,0.9-4.2c0-1.5-0.3-2.8-0.8-3.9C257.5,526.1,256.7,525.1,255.7,524.2z"/>
	<path class="st0" d="M316.5,403.3h-10.1v10.1h10.1V403.3z"/>
	<path class="st0" d="M336.1,403.3H326v10.1h10.1V403.3z"/>
	<path class="st0" d="M345.9,403.3h-10.1v10.1h10.1V403.3z"/>
	<path class="st0" d="M385,403.3h-10.1v10.1H385V403.3z"/>
	<path class="st0" d="M424.2,403.3h-10.1v10.1h10.1V403.3z"/>
	<path class="st0" d="M434,403.3h-10.1v10.1H434V403.3z"/>
	<path class="st0" d="M443.8,403.3h-10.1v10.1h10.1V403.3z"/>
	<path class="st0" d="M453.6,403.3h-10.1v10.1h10.1V403.3z"/>
	<path class="st0" d="M463.4,403.3h-10.1v10.1h10.1V403.3z"/>
	<path class="st0" d="M473.2,403.3h-10.1v10.1h10.1V403.3z"/>
	<path class="st1" d="M375,276.3h-9.5v9.5h9.5V276.3z"/>
	<path class="st1" d="M316.2,286.1h-9.5v9.5h9.5V286.1z"/>
	<path class="st1" d="M394.8,295.8v9.5v0.3v9.5h9.5h0.3h9.5v-9.5v-0.3v-9.5h-9.5h-0.3H394.8z"/>
	<path class="st1" d="M355.4,266.5h-9.5v9.5h9.5V266.5z"/>
	<path class="st1" d="M345.9,197.6h9.5v-9.5h-9.5h-0.3h-9.5h-0.3h-9.5v9.5v0.3v9.5h9.5v-9.8h9.8H345.9z"/>
	<path class="st1" d="M345.6,237.1v-9.8h-9.5v9.5v9.8h9.5V237.1z"/>
	<path class="st1" d="M335.8,217.5h-9.5v9.5h9.5V217.5z"/>
	<path class="st1" d="M296.6,256.7h-9.5v9.5h9.5V256.7z"/>
	<path class="st1" d="M326,227.3h-9.5v9.5h9.5V227.3z"/>
	<path class="st1" d="M414.1,227h49v-49h-49V227z M423.9,187.8h29.4v29.4h-29.4V187.8z"/>
	<path class="st1" d="M286.8,354.3h-49v49h49V354.3z M277,393.5h-29.4v-29.4H277V393.5z"/>
	<path class="st1" d="M237.9,227h49v-49h-49V227z M247.7,187.8h29.4v29.4h-29.4V187.8z"/>
	<path class="st1" d="M247.7,266.5h-9.5v9.8v9.5h9.5V276h9.8v-9.5H248H247.7z"/>
	<path class="st1" d="M267.2,256.7h-9.5v9.5h9.5h0.3h9.5v-9.5h-9.5H267.2z"/>
	<path class="st1" d="M375.2,344.8v9.8h-9.7v9.5h9.5h0.2h9.5v-9.5v-0.3v-9.5H375.2z"/>
	<path class="st1" d="M375,188.1h-9.5v9.5h9.5V188.1z"/>
	<path class="st1" d="M434,384h-9.8v9.5h9.5h0.3h9.5V384v-0.3v-9.5H434V384z"/>
	<path class="st1" d="M423.9,286.1h-9.5v9.5h9.5V286.1z"/>
	<path class="st1" d="M433.7,305.6v-0.3v-9.5h-9.5v9.5v0.3v9.5h9.5V305.6z"/>
	<path class="st1" d="M453.3,354.6h-9.5v9.5h9.5V354.6z"/>
	<path class="st1" d="M443.5,325.2H434v9.5h9.5V325.2z"/>
	<path class="st1" d="M394.5,315.4H385v9.5h9.5V315.4z"/>
	<path class="st1" d="M453.3,276.3v-9.8v-0.3v-9.5h-9.5h-0.3H434h-0.3h-9.5v9.5h9.5h0.3h9.8v10.1H434v9.5v0.3v9.5h9.5v-9.8h9.8h0.3
		h9.5v-9.5H453.3z"/>
	<path class="st1" d="M467,148.7H233.9c-14,0-25.4,11.4-25.4,25.4v233.1c0,14,11.4,25.4,25.4,25.4H467c14,0,25.4-11.4,25.4-25.4
		V174.1C492.5,160.1,481.1,148.7,467,148.7z M404.3,168.3h68.6v68.5h-68.6V168.3z M228.1,168.3h68.6v68.5h-68.6V168.3z M296.6,413.1
		H228v-68.5h68.6V413.1z M473.2,295.8h-9.8v9.5h9.8v19.9h-10.1v-9.8h-9.8v-19.6h-9.5v29.1h9.8v19.6h19.6v10.1h-9.8v19.3h9.8v29.7
		h-10.1v-19.9v-9.5h-9.5v19.6h-9.8v9.8h-78.6v-10.1h19.6V384H375v-9.8h-9.8v-9.8h-9.5v9.8h-10.1v-19.9h9.8v-9.5h-9.8V335h-9.8v-9.8
		h-9.5v19.3h9.8v19.9H326v-9.8h-9.5v19.3h9.8v9.8h29.4v10.1h-9.8v9.8h-10.1v-9.8h-29.4v-39.5h9.8v-9.5h-9.8v-10.1h9.8v-29.1h-9.5
		v9.8h-19.6v9.5h9.8V335h-29.7v-9.8h-19.6v-19.9h10.1v9.8H277v-9.8h29.4v-9.5h-19.6v-10.1h19.6v-9.8h9.8v-9.5h-19.3v9.8h-39.2v9.5
		h19.6v10.1h-39.2V335H228v-88.4h10.1v9.8h9.5v-9.8h49.3v9.8h19.6v9.8h29.1v-9.5h-9.8v-9.8h-29.4v-59H326v-9.5h-9.8v-10.1h10.1v9.8
		h9.5v-9.8h49.3v9.8h9.8v10h-9.8v19.3h9.8v10.1H375v-9.8h-9.8v-9.8h-9.5v49h-9.8v9.5h39.2v9.8h29.1v-9.5h-9.8v-10.1h49.3v9.8h9.8
		v9.8h9.8v29.6H473.2z M394.8,227v19.9h-10.1V227H394.8z M375.2,227v19.9h-10.1V227H375.2z"/>
	<path class="st1" d="M423.9,374.2h-9.5v9.5h9.5V374.2z"/>
	<path class="st1" d="M404.3,384h-9.5v9.5h9.5h0.3h9.5V384h-9.5H404.3z"/>
	<path class="st1" d="M414.1,335h-9.5h-0.3h-9.5v9.5v0.3v9.5v0.3v9.5h9.5h0.3h9.5h0.3h9.5v-9.5v-0.3v-9.8V335h-9.5H414.1z
		 M414.4,354.6h-10.1v-10.1h10.1V354.6z"/>
	<path class="st1" d="M404.3,276.3h-9.5h-0.3H385v9.8h-9.8v9.7h-10v-9.7h-9.5v9.7h-9.8h-0.3h-9.8v-9.7h-9.5v9.5v0.2v9.5v0.3v9.5h9.5
		v-9.8h9.8h0.3h9.8v10.1h-9.8v9.5v0.3v9.5h9.5h0.3h9.5h0.3h9.5v-9.5h-9.8v-10.1h9.8v-9.8h9.7v-9.7h9.8v-9.8h9.8V276.3z"/>
	<path class="st0" d="M365.2,227v9.8v0.3v9.8h10v-10.1V227H365.2z"/>
	<path class="st0" d="M394.8,246.9v-9.8v-0.3V227h-10.1v10.1v9.8H394.8z"/>
	<path class="st0" d="M463.4,266.2v-9.8h-9.8v-9.8h-9.8h-0.3H434h-0.3h-9.5h-0.3h-9.5h-0.3h-9.8v10.1h9.8v9.5h-9.5h-0.3h-9.5h-0.3
		H385v-9.8h-9.8h-0.3h-9.5h-0.3h-9.5h-0.3h-9.5v-9.5h9.8v-9.8v-0.3v-9.5V227v-9.5v-0.3v-9.5v-0.3v-9.5h9.5v9.8h9.8v9.8h9.8h0.3h9.8
		v-10.1H385v-9.5v-0.3v-9.5h9.8V178H385v-9.8h-9.8h-0.3h-9.5h-0.3h-9.5h-0.3h-9.5h-0.3h-9.8v9.8h-9.5v-9.8h-10.1v10.1h9.8v9.5h-9.5
		h-0.3h-9.8v10.1v9.5v0.3v9.5v9.8v0.3v9.8v9.8h9.8h0.3h9.5h0.3h9.5v9.8h9.8v9.5H336h-0.3h-9.5h-0.3h-9.5v-9.8h-9.8h-0.3h-9.5v-9.8
		H287h-0.3h-9.5h-0.3h-9.5h-0.3h-9.5h-0.3h-9.8v9.8H238v-9.8h-10.1v10.1v9.5v0.3v9.5v9.8v0.3v9.8v9.5v0.3v9.5v9.8v0.3v9.8H238v-9.8
		V325v-9.5v-9.8v-0.3v-9.5h9.5h0.3h9.5h0.3h9.5h0.3h9.8v-10.1h-9.8h-0.3h-9.5v-9.5h9.5h0.3h9.5h0.3h9.5h0.3h9.8v-9.8h9.5h0.3h9.5
		v9.5h-9.8v9.8h-9.5h-0.3h-9.8v10.1h9.8h0.3h9.5v9.5h-9.5h-0.3H287h-0.3h-9.8v9.8h-9.5h-0.3h-9.5v-9.8h-10.1v9.8v10.1h9.8h0.3h9.5
		v9.8h9.8h0.3h9.5h0.3h9.8V325H287v-9.5h9.5h0.3h9.8v-9.8h9.5v9.5v0.3v9.5v0.3v9.5h-9.8v10.1h9.8v9.5h-9.8v10.1v9.5v0.3v9.5v10.1
		h9.8h0.3h9.5h0.3h9.5v9.5h-9.8v10.1h9.8h0.3h9.8v-9.8v-0.3v-9.5h9.8v-10.1h-9.8h-0.3H336h-0.3h-9.5V374h-9.8v-9.5v-0.4v-9.5h9.5
		v9.8H336v-9.8v-0.3v-9.8h-9.8V335v-0.3v-9.5h9.5v9.8h9.8v9.8h9.8v9.5h-9.8v10.1v9.8h10.1v-9.8h9.5v9.8h9.8v9.8h9.8v9.5h-9.5h-0.3
		h-9.8v10.1h9.8v9.8H385v-9.8h9.5h0.3h9.5h0.3h9.5v9.8h9.8h0.3h9.5h0.3h9.5h0.3h9.5h0.3h9.5h0.3h9.8v-9.8v-0.3v-9.5v-0.3V384v-0.3
		v-9.8h-9.8v-9.5v-0.3v-9.5h9.8v-10.1h-9.8h-0.3h-9.5V335v-0.3v-9.8h-9.8v-9.5v-0.3v-9.5v-0.3v-9.5h9.5v9.5v0.3v9.8h9.8v9.8h10.1
		v-9.8v-0.3v-9.8h-9.8v-9.5h9.8V286v-0.3v-9.5v-0.3v-9.8L463.4,266.2z M238.2,285.8v-9.5v-9.8h9.5h0.3h9.5v9.5h-9.8v9.8H238.2z
		 M267.5,266.2h-0.3h-9.5v-9.5h9.5h0.3h9.5v9.5H267.5z M287.1,256.7h9.5v9.5h-9.5V256.7z M423.9,295.5h-9.5V286h9.5V295.5z
		 M443.5,384v9.5H434h-0.3h-9.5V384h9.8v-9.8h9.5v9.5V384z M423.9,383.7h-9.5v-9.5h9.5V383.7z M394.5,315.4v9.5H385v-9.5H394.5z
		 M394.8,354.3v-9.5v-0.3V335h9.5h0.3h9.5h0.3h9.5v9.5v9.8v0.3v9.5h-9.5h-0.3h-9.5h-0.3h-9.5v-9.5V354.3z M443.8,364.1v-9.5h9.5v9.5
		H443.8z M434,334.7v-9.5h9.5v9.5H434z M414.1,305.6v9.5h-9.5h-0.3h-9.5v-9.5v-0.3v-9.5h9.5h0.3h9.5v9.5V305.6z M365.5,285.8v-9.5
		h9.5v9.5H365.5z M355.4,276h-9.5v-9.5h9.5V276z M345.6,246.6h-9.5v-9.8v-9.5h9.5v9.8V246.6z M335.8,227h-9.5v-9.5h9.5V227z
		 M365.5,197.6v-9.5h9.5v9.5H365.5z M336.1,188.1h9.5h0.3h9.5v9.5h-9.5h-0.3h-9.8v9.8h-9.5v-9.5v-0.3v-9.5h9.5H336.1z M316.5,236.8
		v-9.5h9.5v9.5H316.5z M306.7,295.5V286h9.5v9.5H306.7z M345.9,334.7v-9.5v-0.3v-9.5h9.8v-10.1h-9.8h-0.3h-9.8v9.8h-9.5v-9.5v-0.3
		v-9.5v-0.3V286h9.5v9.8h9.8h0.3h9.8V286h9.5v9.8h10.1V286h9.8v-9.8h9.5h0.3h9.5v9.5h-9.8v9.8h-9.8v9.8H375v9.8h-9.8v10.1h9.8v9.5
		h-9.5h-0.3h-9.5h-0.3H345.9z M365.5,364.1v-9.5h9.8v-9.8h9.5v9.5v0.3v9.5h-9.5H375H365.5z M404.6,393.5h-0.3h-9.5V384h9.5h0.3h9.5
		v9.5H404.6z M463.1,383.7v9.8v0.3v9.5h-9.5h-0.3h-9.5v-9.5h9.8V384v-9.8h9.5V383.7z M433.7,305.6v9.5h-9.5v-9.5v-0.3v-9.5h9.5v9.5
		V305.6z M443.5,285.8v9.8H434v-9.5v-0.3v-9.5h9.8v-10.1H434h-0.3h-9.5v-9.5h9.5h0.3h9.5h0.3h9.5v9.5v0.3v9.8h9.8v9.5h-9.5h-0.3
		H443.5z"/>
	<path class="st0" d="M414.4,344.5h-10.1v10.1h10.1V344.5z"/>
	<path class="st0" d="M316.5,403.3h-10.1v10.1h10.1V403.3z"/>
	<path class="st0" d="M296.6,168.3h-68.5v68.5h68.5V168.3z M286.8,227h-49v-49h49V227z"/>
	<path class="st0" d="M472.9,168.3h-68.5v68.5h68.5V168.3z M463.1,227h-49v-49h49V227z"/>
	<path class="st0" d="M228.1,413h68.5v-68.5h-68.5V413z M237.9,354.3h49v49h-49V354.3z"/>
	<path class="st0" d="M277.1,187.8h-29.4v29.4h29.4V187.8z"/>
	<path class="st0" d="M453.3,187.8h-29.4v29.4h29.4V187.8z"/>
	<path class="st0" d="M277.1,364.1h-29.4v29.4h29.4V364.1z"/>
</g>
</svg>
