<?xml version="1.0" encoding="utf-8"?>
<!-- Generator: Adobe Illustrator 26.3.1, SVG Export Plug-In . SVG Version: 6.00 Build 0)  -->
<svg version="1.1" id="Слой_1" xmlns="http://www.w3.org/2000/svg" xmlns:xlink="http://www.w3.org/1999/xlink" x="0px" y="0px"
	 viewBox="0 0 700 700" style="enable-background:new 0 0 700 700;" xml:space="preserve">
<style type="text/css">
	.st0{fill:#FFFFFF;}
	.st1{fill-rule:evenodd;clip-rule:evenodd;fill:#020203;}
	.st2{fill-rule:evenodd;clip-rule:evenodd;fill:#FFFFFF;}
	.st3{fill:#020203;}
	.st4{fill:#1E1E1C;}
</style>
<g>
	<path class="st0" d="M277,187.8h-29.4v29.4H277V187.8z"/>
	<path class="st0" d="M228.1,168.2v68.6h68.5v-68.6H228.1z M286.8,227h-49v-48.9h49V227z"/>
	<path class="st0" d="M277,364.1h-29.4v29.4H277V364.1z"/>
	<path class="st0" d="M228.1,344.5v68.6h68.5v-68.6H228.1z M286.8,403.2h-49v-49h49V403.2z"/>
	<path class="st0" d="M316.5,403.2h-10.1v10.1h10.1V403.2z"/>
	<path class="st0" d="M375.2,227h-10.1v19.9h10.1V227z"/>
	<path class="st0" d="M394.8,227h-10.1v19.9h10.1V227z"/>
	<path class="st0" d="M365.1,315.1v10.1h0.1v-9.9h9.6v-0.1h-9.7V315.1z M365.1,315.1v10.1h0.1v-9.9h9.6v-0.1h-9.7V315.1z
		 M384.7,295.5v9.8h-9.8v9.8h-9.8v10.1h0.1v-9.9h9.8v-9.8h9.8v-9.8h9.6v-0.1h-9.7V295.5z M434,266.1v0.1h9.8v-0.1H434z M384.7,295.5
		v9.8h-9.8v9.8h-9.8v10.1h0.1v-9.9h9.8v-9.8h9.8v-9.8h9.6v-0.1h-9.7V295.5z M404.3,344.5v10.1h10.1v-10.1H404.3z M434,266.1v0.1h9.8
		v-0.1H434z M384.7,295.5v9.8h-9.8v9.8h-9.8v10.1h0.1v-9.9h9.8v-9.8h9.8v-9.8h9.6v-0.1h-9.7V295.5z M404.3,344.5v10.1h10.1v-10.1
		H404.3z M404.3,344.5v10.1h10.1v-10.1H404.3z M434,266.1v0.1h9.8v-0.1H434z M384.7,295.5v9.8h-9.8v9.8h-9.8v10.1h0.1v-9.9h9.8v-9.8
		h9.8v-9.8h9.6v-0.1h-9.7V295.5z M404.3,344.5v10.1h10.1v-10.1H404.3z M404.3,344.5v10.1h10.1v-10.1H404.3z M434,266.1v0.1h9.8v-0.1
		H434z M384.7,295.5v9.8h-9.8v9.8h-9.8v10.1h0.1v-9.9h9.8v-9.8h9.8v-9.8h9.6v-0.1h-9.7V295.5z M404.3,344.5v10.1h10.1v-10.1H404.3z
		 M404.3,344.5v10.1h10.1v-10.1H404.3z M404.3,344.5v10.1h10.1v-10.1H404.3z M404.3,344.5v10.1h10.1v-10.1H404.3z M404.3,344.5v10.1
		h10.1v-10.1H404.3z M404.3,344.5v10.1h10.1v-10.1H404.3z M404.3,344.5v10.1h10.1v-10.1H404.3z M404.3,344.5v10.1h10.1v-10.1H404.3z
		 M404.3,344.5v10.1h10.1v-10.1H404.3z M404.3,344.5v10.1h10.1v-10.1H404.3z M404.3,344.5v10.1h10.1v-10.1H404.3z M453.7,344.5v0.1
		h19.4v-0.1H453.7z M463.5,305.3L463.5,305.3l9.6,0.1v-0.1H463.5z M463.5,266.1v0.1h9.6v-0.1H463.5z M453.7,256.4v0.1h9.6v-0.1
		H453.7z M463.1,315.5v9.6h0.1L463.1,315.5L463.1,315.5z M463.1,276.4v9.4h-19.6v9.8h-9.4v0.1h9.5v-9.8h19.6L463.1,276.4
		L463.1,276.4z M453.6,374.1v19.6h-9.8v9.5h19.3v-29.1H453.6z M443.9,324.9v0.1h9.7v-0.1H443.9z M404.3,246.6v10.1h0.1v-9.9h49.1
		v-0.1h-49.2V246.6z M453.3,296v19.4h0.1L453.3,296L453.3,296z M453.3,256.8v19.5h0.1L453.3,256.8L453.3,256.8z M443.9,354.7v9.4
		h9.4v-9.4H443.9z M424.3,266.1v0.1h19.4v-0.1H424.3z M443.5,325.3v9.4h-9.4v0.1h9.5L443.5,325.3L443.5,325.3z M434,374.3v9.7h-9.8
		v9.5h19.3v-19.1L434,374.3L434,374.3z M433.7,296v19.1h-9.4v0.1h9.5v-19.3L433.7,296z M404.3,344.5v10.1h10.1v-10.1H404.3z
		 M404.3,344.5v10.1h10.1v-10.1H404.3z M423.9,335.1V364H395v0.1h29.1V335h-0.2V335.1z M414.4,344.5h-10.1v10.1h10.1V344.5z
		 M404.3,344.5v10.1h10.1v-10.1H404.3z M423.9,286.2v9.4h-9.4v0.1h9.5v-9.5H423.9z M414.4,374.3v9.4h9.5v-9.4H414.4z M404.3,344.5
		v10.1h10.1v-10.1H404.3z M414.1,296v19.1H395v0.1h19.3v-19.3L414.1,296z M414.1,256.8v9.4h-28.9v0.1h29.1v-9.5H414.1z M394.8,383.9
		v9.5h19.3v-9.5H394.8z M404.3,276.4v9.4h-9.8v9.8h-9.8v9.8h-9.8v9.8h-9.8v10.1h0.1v-9.9h9.8v-9.8h9.8v-9.8h9.8V286h9.8v-9.5h-0.1
		V276.4z M385.2,207.4v0.1h9.6v-0.1H385.2z M385.2,178l9.6,0.1V178H385.2z M385.2,315.5v9.5h9.5v-9.5H385.2z M346,256.4v0.1h39v-0.1
		H346z M335.8,168.2v9.8h-9.4v0.1h9.5v-9.8H385v-0.1H335.8z M375.4,344.9v9.8h-9.8v9.4h19.3v-19.2H375.4z M374.9,325.3v9.4h-29.1
		v0.1H375v-9.5H374.9z M365.6,276.4v9.5h9.5v-9.5H365.6z M374.9,207.8v9.7h0.1v-9.7H374.9z M374.9,188.2v9.4h-9.4v0.1h9.5v-9.5
		H374.9z M365.1,286.2v9.7h0.1L365.1,286.2L365.1,286.2z M365.1,198v9.6h0.1L365.1,198L365.1,198z M355.3,344.9v9.4h-9.8v19.9h0.1
		v-19.8h9.8L355.3,344.9L355.3,344.9z M355.3,266.6v9.4h-9.4v0.1h9.5L355.3,266.6L355.3,266.6z M355.3,188.2v9.4h-19.6v9.8h-9.4v0.1
		h9.5v-9.8h19.6L355.3,188.2L355.3,188.2z M345.6,335v9.8h0.1L345.6,335L345.6,335z M345.6,256.8v9.4h-28.9v0.1h29.1v-9.5H345.6z
		 M345.6,227.4v19.2h-9.4v0.1h9.5L345.6,227.4L345.6,227.4z M326.4,344.5v0.1h9.6v-0.1H326.4z M335.8,286.2v9.7h0.1L335.8,286.2
		L335.8,286.2z M335.8,247v9.6h0.1L335.8,247L335.8,247z M335.8,217.6v9.4h-9.4v0.1h9.5L335.8,217.6L335.8,217.6z M316.2,168.2v10.1
		h0.1v-10h9.9v-0.1H316.2z M326,354.7v9.6h0.1L326,354.7L326,354.7z M326,227.4v9.4h-9.4v0.1h9.5L326,227.4L326,227.4z M326,178.5
		v9.4h-19.6v59h0.1V188h19.6L326,178.5L326,178.5z M297,256.4v0.1h19.4v-0.1H297z M316.2,344.8v9.5h0.1v-9.5H316.2z M306.8,286.2
		v9.4h9.5v-9.4H306.8z M316.2,266.6v9.4h-9.8v9.8h-19.6v10.1h0.1v-10h19.6v-9.8h9.8v-9.5H316.2z M247.6,246.6v9.8h-9.4v0.1h9.5v-9.8
		h49.1v-0.1H247.6z M287.2,256.8v9.5h9.5v-9.5H287.2z M257.9,285.7v0.1h19.4v-0.1H257.9z M257.9,256.8v9.5h19.3v-9.5H257.9z
		 M238.3,266.6v19.3h9.5v-9.8h9.8v-9.5H238.3z M228.1,246.6v49h0.1v-48.8h9.9v-0.1h-10V246.6z M404.3,344.5v10.1h10.1v-10.1H404.3z
		 M404.3,344.5v10.1h10.1v-10.1H404.3z M404.3,344.5v10.1h10.1v-10.1H404.3z M404.3,344.5v10.1h10.1v-10.1H404.3z M404.3,344.5v10.1
		h10.1v-10.1H404.3z M404.3,344.5v10.1h10.1v-10.1H404.3z M404.3,344.5v10.1h10.1v-10.1H404.3z M404.3,344.5v10.1h10.1v-10.1H404.3z
		 M404.3,344.5v10.1h10.1v-10.1H404.3z M404.3,344.5v10.1h10.1v-10.1H404.3z M404.3,344.5v10.1h10.1v-10.1H404.3z M384.7,295.5v9.8
		h-9.8v9.8h-9.8v10.1h0.1v-9.9h9.8v-9.8h9.8v-9.8h9.6v-0.1h-9.7V295.5z M434,266.1v0.1h9.8v-0.1H434z M404.3,344.5v10.1h10.1v-10.1
		H404.3z M404.3,344.5v10.1h10.1v-10.1H404.3z M384.7,295.5v9.8h-9.8v9.8h-9.8v10.1h0.1v-9.9h9.8v-9.8h9.8v-9.8h9.6v-0.1h-9.7V295.5
		z M434,266.1v0.1h9.8v-0.1H434z M404.3,344.5v10.1h10.1v-10.1H404.3z M404.3,344.5v10.1h10.1v-10.1H404.3z M384.7,295.5v9.8h-9.8
		v9.8h-9.8v10.1h0.1v-9.9h9.8v-9.8h9.8v-9.8h9.6v-0.1h-9.7V295.5z M434,266.1v0.1h9.8v-0.1H434z M404.3,344.5v10.1h10.1v-10.1H404.3
		z M384.7,295.5v9.8h-9.8v9.8h-9.8v10.1h0.1v-9.9h9.8v-9.8h9.8v-9.8h9.6v-0.1h-9.7V295.5z M434,266.1v0.1h9.8v-0.1H434z
		 M384.7,295.5v9.8h-9.8v9.8h-9.8v10.1h0.1v-9.9h9.8v-9.8h9.8v-9.8h9.6v-0.1h-9.7V295.5z M365.1,315.1v10.1h0.1v-9.9h9.6v-0.1h-9.7
		V315.1z M365.1,315.1v10.1h0.1v-9.9h9.6v-0.1h-9.7V315.1z"/>
	<path class="st0" d="M453.3,187.8h-29.4v29.4h29.4V187.8z"/>
	<path class="st0" d="M404.3,168.2v68.6h68.5v-68.6H404.3z M463.1,227h-49v-48.9h49V227z"/>
	<path class="st1" d="M478.2,130.3H222.8c-18,0-32.6,14.6-32.6,32.6v255.4c0,18,14.6,32.6,32.6,32.6h61l63.5,27.5
		c2.1,0.9,4.4,0.9,6.5,0l63.5-27.5h61c18,0,32.6-14.6,32.6-32.6V162.9C510.8,144.9,496.2,130.3,478.2,130.3z M502.6,418.3
		c0,13.5-11,24.5-24.5,24.5h-62.7l-65,28.2l-65.1-28.2h-62.7c-13.5,0-24.5-11-24.5-24.5V162.9c0-13.5,11-24.5,24.5-24.5H478
		c13.5,0,24.5,11,24.5,24.5L502.6,418.3L502.6,418.3z"/>
	<path class="st2" d="M238.1,246.7v9.6h0.1L238.1,246.7L238.1,246.7z M277.3,285.9v10h-39.2v0.1h39.3L277.3,285.9L277.3,285.9z
		 M296.9,246.7v9.6h0.1v-9.6H296.9z M286.9,295.8v0.1h19.4v-0.1H286.9z M296.9,266.4v9.8h-39.2v9.5h0.1v-9.4H297v-9.8h19.2v-0.1
		H296.9z M316.5,256.5v9.6h0.1L316.5,256.5L316.5,256.5z M316.3,178.3l9.6,0.1v-0.1H316.3z M316.5,354.6v0.1h9.5v-0.1H316.5z
		 M326.3,168.4v9.6h0.1L326.3,168.4L326.3,168.4z M326.3,334.8v9.6h0.1L326.3,334.8L326.3,334.8z M306.5,246.9L306.5,246.9l29.2,0.1
		v-0.1H306.5z M336.1,344.6v19.7h-9.9v0.1h10.1v-19.9L336.1,344.6z M335.9,256.6v0.1h9.6v-0.1H335.9z M345.7,344.8v0.1h9.6v-0.1
		H345.7z M355.6,197.9v49h-9.8v9.5h0.1V247h9.8L355.6,197.9l9.5,0.1v-0.1H355.6z M355.6,364.4v9.8h-9.9v0.1h10.1v-9.8h9.4v-0.1
		H355.6z M365.3,207.7v0.1h9.6v-0.1H365.3z M375.2,227.1v19.7h-9.9v0.1h10.1V227L375.2,227.1z M385,168.4v9.6h0.1L385,168.4
		L385,168.4z M385,256.5v9.6h0.1L385,256.5L385,256.5z M394.8,178.2v9.9H385v19.3h0.1v-19.1h9.8L394.8,178.2L394.8,178.2z
		 M394.8,207.5v10h-19.7v0.1H395v-10.1H394.8z M394.8,227.1v19.7h-9.9v0.1H395V227L394.8,227.1z M404.4,256.6v0.1h9.6v-0.1H404.4z
		 M443.8,295.8v29.1h0.1V296h9.4v-0.1h-9.5V295.8z M453.6,246.7v9.6h0.1L453.6,246.7L453.6,246.7z M453.6,325v19.4h0.1L453.6,325
		L453.6,325z M453.4,315.4L453.4,315.4l9.6,0.1v-0.1H453.4z M463.4,256.5v9.6h0.1v-9.6H463.4z M473.1,266.3v29.5h-9.8v9.5h0.1v-9.4
		h9.8v-29.7h-0.1V266.3z M473.1,305.5v19.7h-9.9v0.1h10.1v-19.9L473.1,305.5z M473.1,344.6v10h-9.8v0.1h9.9L473.1,344.6L473.1,344.6
		z"/>
	<path class="st2" d="M478.2,138.4H222.8c-13.5,0-24.5,11-24.5,24.5v255.4c0,13.5,11,24.5,24.5,24.5h62.7l65.1,28.2l65-28.2h62.7
		c13.5,0,24.5-11,24.5-24.5V162.9C502.6,149.4,491.7,138.4,478.2,138.4z M404.3,168.2h68.5v68.6h-68.5V168.2z M228.1,168.2h68.5
		v68.6h-68.5V168.2z M296.6,413h-68.5v-68.6h68.5V413z M316.5,413.3h-10.1v-10.1h10.1V413.3z M473.3,296h-9.8v9.4h9.6v0.1h0.1v19.9
		h-10.1v-0.1H463v-9.6h-9.6v-0.1h-0.1v-19.4h-9.4v28.9h9.7v0.1h0.1v19.4h19.4v0.1h0.1v10.1h-9.9v19.1h9.8v39.5h-59v-9.8H385v9.8
		h-10.1v-9.8h-9.8v-10.2h19.6v-9.5h-9.8v-9.8h-9.8v-9.6h-9.4v9.8h-10.1v-0.1h-0.1v-19.9h9.8v-9.4h-9.6v-0.1h-0.1V335h-9.8v-9.8h-9.5
		v9.6h0.1v9.6h9.6v0.1h0.1v19.9H326v-0.1h-0.1v-9.6h-9.5v19.1h9.8v9.8h29.4v10.1h-9.8v19.6h-19.9v-10.1h9.8v-9.5h-29.3v-39.5h9.8
		v-9.5h-9.8v-10.1h9.8v-29.1h-9.5v9.8h-19.6v9.5h9.8v10.1h-29.7v-9.8h-19.6v-19.9h10.1v9.8H277v-9.8h29.4v-9.4H287v-0.1h-0.1v-10.1
		h19.6v-9.8h9.8v-9.4h-19.2v9.8h-39.2v9.4h19.4v0.1h0.1v10.1h-39.3v39H228v-88.4h10.1v0.1h0.1v9.6h9.4v-9.8h49.3v0.1h0.1v9.6h19.4
		v0.1h0.1v9.6h28.9v-9.4h-9.6v-0.1h-0.1v-9.6h-29.2v-0.1h-0.1v-59H326v-9.4h-9.6V178h-0.1v-10.1h10.1v0.1h0.1v9.6h9.4v-9.8h49.3v0.1
		h0.1v9.6h9.6v0.1h0.1v10.1h-9.8v19.1h9.6v0.1h0.1V217H375v-0.1h-0.1v-9.7h-9.6v-0.1h-0.1v-9.6h-9.4v49H346v9.4h39v0.1h0.1v9.6H414
		v-9.4h-9.6v-0.1h-0.1V246h49.3v0.1h0.1v9.6h9.6v0.1h0.1v9.6h9.6v0.1h0.1V296H473.3z M384.7,246.9V227h10.1v0.1h0.1V247h-10.1v-0.1
		H384.7z M365.1,246.9V227h10.1v0.1h0.1V247L365.1,246.9L365.1,246.9L365.1,246.9z"/>
	<path class="st2" d="M326,227.3v0.1h-9.4v9.4h-0.1v-9.5H326z"/>
	<path class="st2" d="M335.8,217.5L335.8,217.5l-9.4,0.1v9.4h-0.1v-9.5H335.8z"/>
	<path class="st2" d="M345.6,227.3v0.1h-9.4v19.2h-0.1v-19.3H345.6z"/>
	<path class="st0" d="M375,188.2h-9.4v9.4h9.4V188.2z"/>
	<path class="st2" d="M374.9,188.1v0.1h-9.3v9.4h-0.2v-9.5H374.9z"/>
	<path class="st2" d="M355.3,188.1v0.1h-28.9v19.2h-0.1v-19.3H355.3z"/>
	<path class="st2" d="M394.8,335v29.1h0.1v-28.9h28.9v-0.1L394.8,335L394.8,335z"/>
	<path class="st0" d="M443.5,325.2H434v9.5h9.5V325.2z"/>
	<path class="st2" d="M463.1,276.2v9.5h-19.6v9.8H434v-19.3h9.8v-10.1h-19.6v-9.5h29.1v19.6H463.1z"/>
	<path class="st0" d="M433.7,295.8h-9.5v19.3h9.5V295.8z"/>
	<path class="st0" d="M414.1,295.8h-19.3v19.3h19.3V295.8z"/>
	<path class="st0" d="M423.9,286h-9.5v9.5h9.5V286z"/>
	<path class="st0" d="M355.4,266.4h-9.5v9.5h9.5V266.4z"/>
	<path class="st2" d="M404.3,276.2v9.5h-9.8v9.8h-9.8v9.8h-9.8v9.8h-9.8v10.1h9.8v9.5h-29v-19.3h9.7v-10.1h-19.8v9.8h-9.5V286h9.5
		v9.8h19.8V286h9.5v9.8h10.1V286h9.8v-9.8H404.3z"/>
	<path class="st3" d="M471.4,530.2c-0.5-0.5-1.2-0.8-2.1-0.8c-0.9,0-1.6,0.3-2.1,0.8s-0.7,1.2-0.7,2c0,0.7,0.2,1.4,0.7,1.9
		s1.2,0.8,2.1,0.8c0.9,0,1.6-0.3,2.1-0.8s0.8-1.2,0.8-1.9C472.1,531.4,471.9,530.8,471.4,530.2z"/>
	<path class="st3" d="M471.3,524l0.3-27.1h-5L467,524H471.3z"/>
	<path class="st3" d="M441.5,517.2h16.3v-4.1h-16.3V501h18.7v-4.1h-18.7h-1h-4v37.7h4h1h19v-4.1h-19V517.2z"/>
	<path class="st3" d="M423.5,496.9h-2.2L409,527.6l-12.4-30.7h-2.1h-2.7h-1.6v37.7h5v-14.7l-0.5-15.8l12.4,30.5h3.7l12.4-30.5
		l-0.4,15.8v14.7h4.9v-37.7h-1.5H423.5z"/>
	<path class="st3" d="M363.2,526.1l-19-29.2h-5v37.7h5v-29.1l19,29.1h5v-37.7h-5V526.1z"/>
	<path class="st3" d="M318.6,496.9h-2.2h-1.1l-14.4,37.7h5.1l3.6-9.9h15.8l3.6,9.9h5.1l-14.4-37.7H318.6z M311.1,520.6l6.4-17.6
		l6.4,17.6H311.1z"/>
	<path class="st3" d="M274.4,508.4c0.4-1.6,1.1-3,1.9-4.2c0.9-1.2,1.9-2.1,3.2-2.7c1.3-0.6,2.8-1,4.4-1c2,0,3.5,0.3,4.7,1
		s2.1,1.7,2.8,3s1.1,2.8,1.3,4.5h5c-0.3-2.5-0.9-4.7-2-6.6c-1.1-1.9-2.6-3.4-4.6-4.5c-2-1.1-4.4-1.6-7.2-1.6c-2.3,0-4.4,0.4-6.3,1.2
		s-3.5,2-4.8,3.5s-2.3,3.4-3,5.5c-0.7,2.1-1,4.5-1,7.2v3.8c0,2.6,0.3,5,1,7.2c0.7,2.1,1.7,4,3,5.5s2.8,2.7,4.6,3.5s3.8,1.2,6,1.2
		c3,0,5.5-0.5,7.6-1.6c2-1.1,3.6-2.6,4.7-4.5c1.1-1.9,1.8-4,2-6.4h-5c-0.3,1.8-0.7,3.3-1.4,4.5c-0.6,1.3-1.6,2.2-2.8,2.9
		c-1.3,0.7-3,1-5.1,1c-1.7,0-3.1-0.3-4.4-1c-1.2-0.7-2.2-1.7-3-2.9c-0.8-1.2-1.4-2.6-1.8-4.3c-0.4-1.6-0.6-3.4-0.6-5.2v-3.8
		C273.7,511.8,274,510,274.4,508.4z"/>
	<path class="st3" d="M260.7,518c-1-0.9-2.3-1.8-3.8-2.5c-1.6-0.7-3.4-1.4-5.5-2c-1.6-0.4-2.9-0.9-4-1.3c-1.1-0.5-2-1-2.7-1.5
		c-0.7-0.6-1.2-1.1-1.6-1.8c-0.3-0.7-0.5-1.4-0.5-2.2c0-1.2,0.3-2.2,0.8-3.1c0.6-0.9,1.4-1.6,2.6-2.2c1.2-0.5,2.6-0.8,4.4-0.8
		c1.9,0,3.4,0.3,4.7,1c1.2,0.6,2.1,1.5,2.7,2.6c0.6,1.1,0.9,2.3,0.9,3.8h5c0-2-0.5-3.8-1.6-5.5c-1-1.7-2.5-3.2-4.5-4.2
		c-2-1.1-4.4-1.6-7.2-1.6c-1.9,0-3.7,0.3-5.3,0.8s-2.9,1.2-4.1,2.2c-1.1,0.9-2,2-2.6,3.2c-0.6,1.2-0.9,2.6-0.9,4.1s0.3,2.8,0.9,3.9
		c0.6,1.1,1.4,2.1,2.5,3c1.1,0.9,2.4,1.7,3.9,2.4s3.2,1.3,5.1,1.8c1.8,0.5,3.2,1,4.4,1.5s2.1,1,2.7,1.6c0.7,0.6,1.1,1.2,1.4,1.9
		s0.4,1.5,0.4,2.3c0,1.2-0.3,2.3-1,3.2c-0.6,0.9-1.5,1.6-2.7,2.1c-1.2,0.5-2.7,0.7-4.4,0.7c-1.2,0-2.4-0.1-3.5-0.4
		c-1.1-0.3-2.1-0.7-3-1.3c-0.9-0.6-1.5-1.4-2-2.3c-0.5-0.9-0.8-2-0.8-3.3h-5c0,1.9,0.4,3.5,1.2,5c0.8,1.4,1.9,2.6,3.3,3.6
		c1.4,1,2.9,1.7,4.6,2.2c1.7,0.5,3.4,0.7,5.2,0.7c2,0,3.8-0.2,5.4-0.7c1.6-0.5,3-1.2,4.2-2c1.2-0.9,2-1.9,2.7-3.2
		c0.6-1.2,0.9-2.6,0.9-4.2c0-1.5-0.3-2.8-0.8-3.9C262.4,519.9,261.7,518.9,260.7,518z"/>
	<path class="st3" d="M414.4,344.5h-10.1v10.1h10.1V344.5z"/>
	<path class="st3" d="M375.4,227.1h-10.1V247h10.1V227.1z"/>
	<path class="st3" d="M395,227.1h-10.1V247H395V227.1z"/>
	<path class="st3" d="M473.1,344.6v10h-9.8v0.1h9.9L473.1,344.6L473.1,344.6z M473.1,305.5v19.7h-9.9v0.1h10.1v-19.9L473.1,305.5z
		 M473.1,266.3v29.5h-9.8v9.5h0.1v-9.4h9.8v-29.7h-0.1V266.3z M463.4,256.5v9.6h0.1v-9.6H463.4z M453.4,315.4L453.4,315.4l9.6,0.1
		v-0.1H453.4z M453.4,276.2v0.1h9.6v-0.1H453.4z M453.6,325v19.4h0.1L453.6,325L453.6,325z M453.6,246.7v9.6h0.1L453.6,246.7
		L453.6,246.7z M443.8,295.8v29.1h0.1V296h9.4v-0.1h-9.5V295.8z M424.2,256.6v9.5h0.1v-9.4h28.9v-0.1H424.2z M443.8,266.3v10H434
		v19.3h0.1v-19.2h9.8L443.8,266.3L443.8,266.3z M434,325.2v9.5h0.1v-9.4h9.4v-0.1H434z M424.2,295.8v19.3h0.1V296h9.4v-0.1
		L424.2,295.8z M394.8,335v29.1h0.1v-28.9h28.9v-0.1h-29V335z M414.4,286v9.5h0.1v-9.4h9.4V286H414.4z M365.3,325.2v0.1h9.6v-0.1
		H365.3z M394.8,295.8v19.3h0.1V296H414v-0.1L394.8,295.8z M404.4,256.6v0.1h9.6v-0.1H404.4z M385,276.2v9.8h-9.8v9.8h-9.9v0.1h10.1
		v-9.8h9.8v-9.8h19.1v-0.1H385z M394.8,207.5v10h-19.7v0.1H395v-10.1H394.8z M394.8,178.2v9.9H385v19.3h0.1v-19.1h9.8L394.8,178.2
		L394.8,178.2z M385,256.5v9.6h0.1L385,256.5L385,256.5z M385,168.4v9.6h0.1L385,168.4L385,168.4z M365.3,207.7v0.1h9.6v-0.1H365.3z
		 M365.4,188.1v9.5h0.1v-9.4h9.4v-0.1H365.4z M355.6,364.4v9.8h-9.9v0.1h10.1v-9.8h9.4v-0.1H355.6z M355.6,197.9v49h-9.8v9.5h0.1
		V247h9.8L355.6,197.9l9.5,0.1v-0.1H355.6z M355.6,286v9.8h-19.7v0.1h19.9v-9.8h9.4V286H355.6z M345.7,344.8v0.1h9.6v-0.1H345.7z
		 M345.9,266.4v9.5h0.1v-9.4h9.4v-0.1H345.9z M326.3,188.1v19.3h0.1v-19.1h28.9v-0.1L326.3,188.1z M335.9,256.6v0.1h9.6v-0.1H335.9z
		 M336.1,227.3v19.3h0.1v-19.2h9.4v-0.1H336.1z M336.1,344.6v19.7h-9.9v0.1h10.1v-19.9L336.1,344.6z M326.3,286v9.9h0.1v-9.8h9.4
		V286H326.3z M306.5,246.9L306.5,246.9l29.2,0.1v-0.1H306.5z M326.3,217.5v9.5h0.1v-9.4h9.4v-0.1H326.3z M326.3,334.8v9.6h0.1
		L326.3,334.8L326.3,334.8z M326.3,168.4v9.6h0.1L326.3,168.4L326.3,168.4z M316.5,354.6v0.1h9.5v-0.1H316.5z M316.5,227.3v9.5h0.1
		v-9.4h9.4v-0.1H316.5z M316.3,178.3l9.6,0.1v-0.1H316.3z M316.5,256.5v9.6h0.1L316.5,256.5L316.5,256.5z M296.9,266.4v9.8h-39.2
		v9.5h0.1v-9.4H297v-9.8h19.2v-0.1H296.9z M286.9,295.8v0.1h19.4v-0.1H286.9z M296.9,246.7v9.6h0.1v-9.6H296.9z M277.3,285.9v10
		h-39.2v0.1h39.3L277.3,285.9L277.3,285.9z M238.1,246.7v9.6h0.1L238.1,246.7L238.1,246.7z"/>
	<path class="st4" d="M473.1,295.8v-29.5h-9.6v-0.1h-0.1v-9.6h-9.6v-0.1h-0.1v-9.6h-49.3v9.9h9.6v0.1h0.1v9.5H385v-0.1h-0.1v-9.6
		h-39v-0.1h-0.1v-9.5h9.8v-49h9.5v0.1h0.1v9.6h9.6v0.1h0.1v9.7h19.7v-10H385v-0.1h-0.1v-19.3h9.8v-9.9h-9.6v-0.1H385v-9.6h-49.1v9.8
		h-9.5v-0.1h-0.1v-9.6h-9.9v10h9.6v0.1h0.1v9.5h-19.6v58.9h29.2v0.1h0.1v9.6h9.6v0.1h0.1v9.5h-29.1v-0.1h-0.1v-9.6h-19.4v-0.1h-0.1
		v-9.6h-49.1v9.8h-9.5v-0.1h-0.1v-9.6h-9.9V296h-0.1v39.5h10.1v-39.2h39.2v-10H258v-0.1h-0.1v-9.5h39.2v-9.8h19.3v0.1h0.1v9.5h-9.8
		v9.8h-19.6v10h19.4v9.5h-29.4v9.8h-19.3v-9.8h-10.1v19.9h19.6v9.8H297v-10.1h-9.8v-9.5h19.6v-9.8h9.5v29.1h-9.8v10.1h9.9v9.5h-9.9
		v39.5h29.4v9.5h-9.8v10.1H346v-19.6h9.8v-10.1h-29.4v-9.8h-9.8v-19.3h9.5v0.1h0.1v9.6h9.9v-19.7h-9.6V345h-0.1v-19.3h9.5v9.8h9.9
		v9.8h9.6v0.1h0.1v9.5h-9.8v19.7h9.9v-9.8h9.5v9.8h9.8v9.8h9.8v9.5h-19.6V404h9.8v9.8H385V404h29.1v9.8h59v-39.5h-9.8V355h9.8v-10
		h-19.4v-0.1h-0.1v-19.4h-9.7v-0.1h-0.1v-29.1h9.5v0.1h0.1v19.4h9.6v0.1h0.1v9.6h9.9v-19.7h-9.6v-0.1h-0.1v-9.5h9.8V295.8z
		 M365.4,188.1h9.5v0.1h0.1v9.5h-9.5v-0.1h-0.1V188.1z M326.1,236.9h-9.5v-0.1h-0.1v-9.5h9.5v0.1h0.1V236.9z M257.6,276.1h-9.8v9.8
		h-9.5v-19.3h19.3V276.1z M277.2,266.3h-19.3v-9.5h19.3V266.3z M296.7,266.3h-9.5v-9.5h9.5V266.3z M316.3,295.5h-9.5v-9.4h9.5V295.5
		z M424.2,295.8h9.5v0.1h0.1v19.3h-9.5v-0.1h-0.1V295.8z M414.2,296v19.3h-19.3v-0.1h-0.1v-19.3h19.3L414.2,296L414.2,296z
		 M365.6,276.4h9.5v9.5h-9.5V276.4z M355.3,266.4v0.1h0.1v9.5h-9.5v-0.1h-0.1v-9.5H355.3z M335.9,227.1h-9.5V227h-0.1v-9.5h9.5v0.1
		h0.1V227.1z M335.9,207.5h-9.5v-0.1h-0.1v-19.3h29.1v0.1h0.1v9.5h-19.6V207.5z M336.2,246.7v-0.1h-0.1v-19.3h9.5v0.1h0.1v19.3
		H336.2z M384.9,364.1h-19.3v-9.4h9.8v-9.8h9.5V364.1z M394.7,325h-9.5v-9.5h9.5V325z M394.7,295.7h-9.8v9.8h-9.8v9.8h-9.8v9.9h9.6
		v0.1h0.1v9.5h-29.2v-19.4h9.8v-10.1h-19.9v9.8h-9.5V286h9.5v0.1h0.1v9.7h19.7V286h9.5v0.1h0.1v9.7h9.9V286h9.8v-9.8h19.3v0.1h0.1
		v9.5h-9.8v9.9H394.7z M414.1,393.4h-19.3v-9.5h19.3V393.4z M423.9,383.6h-9.5v-9.4h9.5V383.6z M424,364.2h-29.1v-0.1h-0.1V335h29.1
		v0.1h0.1V364.2z M424,295.7h-9.5v-0.1h-0.1v-9.5h9.5v0.1h0.1V295.7z M443.5,393.4h-19.3v-9.5h9.8v-9.7h9.5V393.4z M443.6,334.8
		h-9.5v-0.1H434v-9.5h9.5v0.1h0.1V334.8z M443.9,354.7h9.4v9.4h-9.4V354.7z M453.6,393.7v-19.6h9.5v29.1h-19.3v-9.5H453.6z
		 M463.2,285.9h-19.6v9.8h-9.5v-0.1H434v-19.3h9.8v-10h-19.4v-0.1h-0.1v-9.5h29.1v0.1h0.1v19.5h9.6v0.1h0.1V285.9z"/>
	<path class="st0" d="M394.9,335.1V364h28.9v-28.9H394.9z M414.4,354.6h-10.1v-10.1h10.1V354.6z"/>
	<path class="st0" d="M345.6,227.4h-9.4v19.2h9.4V227.4z"/>
	<path class="st0" d="M335.8,217.6h-9.4v9.4h9.4V217.6z"/>
	<path class="st0" d="M326,227.4h-9.4v9.4h9.4V227.4z"/>
	<path class="st0" d="M355.3,188.2v9.4h-19.5v9.8h-9.4v-19.2H355.3z"/>
	<path class="st3" d="M316.5,403.2h-10.1v10.1h10.1V403.2z"/>
	<path class="st3" d="M228.1,168.2v68.6h68.5v-68.6H228.1z M286.8,227h-49v-48.9h49V227z"/>
	<path class="st0" d="M237.8,178v48.9h49V178H237.8z M277,217.2h-29.4v-29.4H277V217.2z"/>
	<path class="st3" d="M404.3,168.2v68.6h68.5v-68.6H404.3z M463.1,227h-49v-48.9h49V227z"/>
	<path class="st0" d="M414.1,178v48.9h49V178H414.1z M453.3,217.2h-29.4v-29.4h29.4V217.2z"/>
	<path class="st3" d="M228.1,344.5v68.6h68.5v-68.6H228.1z M286.8,403.2h-49v-49h49V403.2z"/>
	<path class="st0" d="M237.8,354.3v49h49v-49H237.8z M277,393.4h-29.4V364H277V393.4z"/>
	<path class="st3" d="M277,187.8h-29.4v29.4H277V187.8z"/>
	<path class="st3" d="M453.3,187.8h-29.4v29.4h29.4V187.8z"/>
	<path class="st3" d="M277,364.1h-29.4v29.4H277V364.1z"/>
	<path class="st1" d="M190.1,566.4c0-2.3,1.8-4.1,4.1-4.1h312.5c2.3,0,4.1,1.8,4.1,4.1s-1.8,4.1-4.1,4.1H194.2
		C191.9,570.5,190.1,568.7,190.1,566.4z"/>
</g>
</svg>
