<?xml version="1.0" encoding="utf-8"?>
<!-- Generator: Adobe Illustrator 26.3.1, SVG Export Plug-In . SVG Version: 6.00 Build 0)  -->
<svg version="1.1" id="Слой_1" xmlns="http://www.w3.org/2000/svg" xmlns:xlink="http://www.w3.org/1999/xlink" x="0px" y="0px"
	 viewBox="0 0 700 700" style="enable-background:new 0 0 700 700;" xml:space="preserve">
<style type="text/css">
	.st0{fill:#020203;}
	.st1{fill:#FFFFFF;}
</style>
<path class="st0" d="M434.2,478.3h-33.7h-24c-0.7,0-1.3-0.1-1.9-0.5l-22.2-11.6c-1.2-0.6-2.6-0.6-3.8,0l-22.2,11.6
	c-0.6,0.3-1.2,0.5-1.9,0.5h-24h-33.7c-9,0-16.3,7.3-16.3,16.3v24.1c0,9,7.3,16.3,16.3,16.3h167.3c9,0,16.3-7.3,16.3-16.3v-24.1
	C450.5,485.6,443.2,478.3,434.2,478.3z M291.3,516.6c-0.4,0.8-1,1.5-1.7,2c-0.7,0.6-1.6,1-2.7,1.3c-1,0.3-2.2,0.4-3.4,0.4
	c-1.1,0-2.2-0.2-3.3-0.5c-1.1-0.3-2.1-0.8-2.9-1.4c-0.9-0.6-1.6-1.4-2.1-2.3c-0.5-0.9-0.8-2-0.8-3.2h3.2c0,0.8,0.2,1.5,0.5,2.1
	c0.3,0.6,0.8,1.1,1.3,1.5c0.6,0.4,1.2,0.7,1.9,0.9s1.5,0.3,2.2,0.3c1.1,0,2.1-0.2,2.8-0.5s1.4-0.8,1.8-1.3c0.4-0.6,0.6-1.3,0.6-2
	c0-0.6-0.1-1.1-0.3-1.5c-0.2-0.4-0.5-0.8-0.9-1.2c-0.4-0.4-1-0.7-1.8-1c-0.7-0.3-1.7-0.6-2.8-1c-1.2-0.4-2.3-0.8-3.2-1.2
	c-1-0.4-1.8-0.9-2.5-1.5c-0.7-0.6-1.2-1.2-1.6-1.9c-0.4-0.7-0.5-1.6-0.5-2.5c0-0.9,0.2-1.8,0.6-2.6c0.4-0.8,0.9-1.5,1.6-2.1
	c0.7-0.6,1.6-1.1,2.6-1.4s2.1-0.5,3.4-0.5c1.8,0,3.3,0.3,4.6,1s2.2,1.6,2.9,2.7s1,2.3,1,3.5h-3.2c0-0.9-0.2-1.7-0.6-2.4
	c-0.4-0.7-1-1.3-1.8-1.6c-0.8-0.4-1.8-0.6-3-0.6c-1.1,0-2.1,0.2-2.8,0.5c-0.7,0.3-1.3,0.8-1.6,1.4c-0.4,0.6-0.5,1.3-0.5,2
	c0,0.5,0.1,1,0.3,1.4c0.2,0.4,0.6,0.8,1,1.1c0.5,0.4,1.1,0.7,1.8,1s1.6,0.6,2.6,0.9c1.4,0.4,2.6,0.8,3.6,1.3s1.8,1,2.4,1.6
	c0.7,0.6,1.1,1.3,1.4,2c0.3,0.7,0.5,1.6,0.5,2.5C291.9,514.9,291.7,515.8,291.3,516.6z M298.7,512.6c0.3,1,0.6,1.9,1.1,2.7
	c0.5,0.8,1.1,1.4,1.9,1.9c0.8,0.4,1.7,0.7,2.8,0.7c1.4,0,2.4-0.2,3.2-0.7c0.8-0.4,1.4-1,1.8-1.8c0.4-0.8,0.7-1.8,0.9-2.9h3.2
	c-0.2,1.5-0.6,2.9-1.3,4.1c-0.7,1.2-1.7,2.2-3,2.9s-2.9,1-4.8,1c-1.4,0-2.7-0.3-3.9-0.8c-1.1-0.5-2.1-1.3-3-2.3
	c-0.8-1-1.5-2.2-1.9-3.5c-0.4-1.4-0.7-2.9-0.7-4.6v-2.4c0-1.7,0.2-3.2,0.7-4.6c0.4-1.4,1.1-2.6,1.9-3.5c0.9-1,1.9-1.7,3.1-2.3
	c1.2-0.5,2.5-0.8,4-0.8c1.8,0,3.4,0.3,4.6,1c1.3,0.7,2.2,1.6,2.9,2.9c0.7,1.2,1.1,2.6,1.3,4.2h-3.2c-0.2-1.1-0.4-2.1-0.9-2.9
	s-1-1.4-1.8-1.9c-0.8-0.4-1.8-0.7-3-0.7c-1.1,0-2,0.2-2.8,0.6c-0.8,0.4-1.5,1-2,1.7c-0.5,0.8-0.9,1.6-1.2,2.7
	c-0.3,1.1-0.4,2.2-0.4,3.5v2.4C298.3,510.4,298.5,511.5,298.7,512.6z M333.7,520.1l-2.3-6.3h-10.1l-2.3,6.3h-3.3l9.2-24.1h0.7h1.4
	h0.7l9.2,24.1H333.7z M358.8,520.1h-3.2l-12.1-18.6v18.6h-3.2V496h3.2l12.2,18.6V496h3.2v24.1H358.8z M396.8,520.1h-3.2v-9.4
	l0.3-10.1l-7.9,19.5h-2.4l-7.9-19.5l0.3,10.1v9.4h-3.2V496h1h1.7h1.4l7.9,19.7l7.9-19.7h1.4h1.7h1V520.1z M424.9,496l-0.2,17.3h-2.8
	l-0.2-17.3H424.9z M417.8,520.1h-12.1h-0.6h-2.6V496h2.6h0.6h12v2.6h-12v7.8h10.4v2.6h-10.4v8.6h12.1V520.1z M424.8,519.8
	c-0.3,0.4-0.8,0.5-1.4,0.5c-0.6,0-1.1-0.2-1.4-0.5c-0.3-0.3-0.4-0.8-0.4-1.2c0-0.5,0.2-0.9,0.4-1.3c0.3-0.3,0.8-0.5,1.4-0.5
	c0.6,0,1,0.2,1.4,0.5c0.3,0.3,0.5,0.8,0.5,1.3C425.2,519,425.1,519.4,424.8,519.8z"/>
<path class="st0" d="M322.3,511.2h8.1l-4.1-11.3L322.3,511.2z"/>
<path class="st0" d="M480.7,165.8h-61v8.2h61c2.3,0,4.1,1.8,4.1,4.1v61h8.1v-61C492.9,171.3,487.5,165.8,480.7,165.8z"/>
<path class="st0" d="M281.4,442.4h-61c-2.3,0-4.1-1.8-4.1-4.1v-61h-8.2v61c0,6.8,5.5,12.2,12.2,12.2h61v-8.1H281.4z"/>
<path class="st0" d="M216.3,178c0-2.3,1.8-4.1,4.1-4.1h61v-8.2h-61c-6.8,0-12.2,5.5-12.2,12.2v61h8.2V178H216.3z"/>
<path class="st0" d="M484.8,438.3c0,2.3-1.8,4.1-4.1,4.1h-61v8.2h61c6.8,0,12.2-5.5,12.2-12.2v-61h-8.1V438.3z"/>
<path class="st0" d="M363.6,260.6v0.2v8.7h8.9v-8.7v-0.2v-8.7h-8.9V260.6z"/>
<path class="st0" d="M380.9,260.6v0.2v8.7h8.9v-8.7v-0.2v-8.7h-8.9V260.6z"/>
<path class="st0" d="M294.4,269.3h-0.3h-8.4h-0.3H277h-0.3h-8.4H268h-8.7v8.7h-8.4v-8.7H242v8.7v0.3v8.4v0.3v8.4v0.3v8.4v0.3v8.4
	v0.3v8.4v0.3v8.4v0.3v8.4v0.3v8.7h8.9v-8.7v-0.3v-8.4v-0.3v-8.4v-0.3v-8.4h8.4h0.3h8.4h0.3h8.4h0.3h8.7v-8.9H277h-0.3h-8.4v-8.4h8.4
	h0.3h8.4h0.3h8.4h0.3h8.7v-8.7h8.4h0.3h8.4v8.4h-8.7v8.7h-8.4h-0.3h-8.7v8.9h8.7h0.3h8.4v8.4h-8.4h-0.3h-8.4h-0.3h-8.7v8.7H277h-0.3
	h-8.4v-8.7h-8.9v8.7v0.3v8.7h8.7h0.3h8.4v8.7h8.7h0.3h8.4h0.3h8.7V339h-8.7v-8.4h8.4h0.3h8.7v-8.7h8.4v8.4v0.3v8.4v0.3v8.4h-8.7v8.9
	h8.7v8.4h-8.7v8.7v0.3v8.4v0.3v8.4v0.3v8.7h8.7h0.3h8.4h0.3h8.4v8.4H329v8.9h8.7h0.3h8.7v-8.7v-0.3V400h8.7v-8.9h-8.7h-0.3H338h-0.3
	h-8.4v-8.7h-8.7V374v-0.3v-8.4h8.4v8.7h8.9v-8.7V365v-8.7h-8.7v-8.4v-0.3v-8.4h8.4v8.7h8.7v8.7h8.7v8.4h-8.7v8.7v0.3v8.7h8.9V374
	h8.4v8.7h8.7v8.7h8.7v8.4h-8.4h-0.3h-8.7v8.9h8.7v8.7h8.9v-8.7h8.4h0.3h8.4h0.3h8.4v8.7h8.7h0.3h8.4h0.3h8.4h0.3h8.4h0.3h8.4h0.3
	h8.7v-8.7v-0.3V400v-0.3v-8.4V391v-8.7h-8.7v-8.4v-0.3v-8.4h8.7v-8.9h-8.7h-0.3h-8.4v-8.4v-0.3v-8.7h-8.7v-8.4v-0.3v-8.4v-0.3v-8.4
	h8.4v8.4v0.3v8.7h8.7v8.7h8.9v-8.7v-0.3v-8.7h-8.7v-8.4h8.7v-8.7v-0.3v-8.4v-0.3v-8.7h-8.7V278H442v-8.7h-8.7H433h-8.4h-0.3h-8.4
	h-0.3h-8.4h-0.3h-8.7v8.9h8.7v8.4h-8.4h-0.3h-8.4h-0.3h-8.4v-8.7h-8.7h-0.3h-8.4h-0.3H355h-0.3h-8.4v-8.4h8.7v-8.7v-0.3v-8.4v-0.3
	v-8.4v-0.3v-8.4v-0.3V226h8.4v8.7h8.7v8.7h8.7h0.3h8.7v-8.9h-8.7v-8.4v-0.3v-8.4h8.7v-8.9h-8.7v-8.7h-8.7h-0.3h-8.4h-0.3H355h-0.3
	h-8.4H346h-8.7v8.7h-8.4v-8.7H320v8.9h8.7v8.4h-8.4H320h-8.7v8.7v0.3v8.4v0.3v8.4v0.3v8.4v0.3v8.4v0.3v8.7h8.7h0.3h8.4h0.3h8.4v8.7
	h8.7v8.4h-8.4h-0.3H329h-0.3h-8.4V278h-8.7h-0.3h-8.4v-8.7H294.4z M268.1,295.3h-8.7v8.7H251v-8.4v-0.3v-8.4h8.4h0.3h8.4V295.3z
	 M285.5,286.6h-8.4h-0.3h-8.4v-8.4h8.4h0.3h8.4V286.6z M302.8,286.6h-8.4v-8.4h8.4V286.6z M320.2,312.6h-8.4v-8.4h8.4V312.6z
	 M432.9,347.3h-8.4v-8.4h8.4V347.3z M441.9,390.9v-0.3v-8.4h8.4v8.4v0.3v8.4v0.3v8.4h-8.4h-0.3h-8.4v-8.4h8.7V390.9z M441.6,364.9
	v8.4h-8.4v-8.4H441.6z M415.8,278.2h8.4h0.3h8.4h0.3h8.4v8.4v0.3v8.7h8.7v8.4h-8.4h-0.3h-8.7v8.7h-8.4v-8.4V304v-8.4h8.7v-8.9h-8.7
	h-0.3h-8.4V278.2z M415.8,321.6v-0.3v-8.4h8.4v8.4v0.3v8.4h-8.4V321.6z M415.8,390.9h8.7v-8.7h8.4v8.4v0.3v8.4h-8.4h-0.3h-8.4V390.9
	z M363.8,217.5h8.4v8.4h-8.4V217.5z M328.9,260.6h-8.4v-8.4h8.4V260.6z M380.9,364.7v0.3v8.4h-8.4h-0.3h-8.4V365h8.7v-8.7h8.4V364.7
	z M389.6,338.6h-8.4v-8.4h8.4V338.6z M406.9,399.4h-8.4h-0.3h-8.4V391h8.4h0.3h8.4V399.4z M415.6,390.7h-8.4v-8.4h8.4V390.7z
	 M407.2,304.2h8.4v8.4h-8.4V304.2z M407.2,347.6h8.4v8.4v0.3v8.4v0.3v8.4h-8.4h-0.3h-8.4h-0.3h-8.4V365v-0.3v-8.4V356v-8.4h8.4h0.3
	h8.4H407.2z M398.5,312.9h8.4v8.4v0.3v8.4h-8.4h-0.3h-8.4v-8.4v-0.3v-8.4h8.4H398.5z M363.8,295.5h8.4v8.4h-8.4V295.5z M354.9,286.9
	v8.4h-8.4v-8.4H354.9z M337.5,251.9h-8.4v-8.4h8.4V251.9z M337.5,234.6h-8.4v-8.4v-0.3v-8.4h8.4h0.3h8.4h0.3h8.4v8.4h-8.4h-0.3h-8.7
	V234.6z M337.8,269.3v-8.4v-0.3v-8.4h8.4v8.4v0.3v8.4H337.8z M329.1,321.6v-0.3v-8.4v-0.3v-8.4h8.4v8.7h8.7h0.3h8.7v-8.7h8.4v8.7
	h8.9v-8.7h8.7v-8.7h8.4h0.3h8.4v8.4h-8.7v8.7h-8.7v8.7h-8.7v8.7h-8.7v8.9h8.7v8.4h-8.4h-0.3h-8.4h-0.3h-8.4v-8.4v-0.3v-8.4h8.7v-8.9
	h-8.7h-0.3h-8.7v8.7H329v-8.4H329.1z"/>
<path class="st0" d="M407.1,356h-8.9v8.9h8.9V356z"/>
<path class="st0" d="M320.4,408h-8.9v8.9h8.9V408z"/>
<path class="st0" d="M242.1,260.6h60.7v-60.7h-60.7V260.6z M250.8,208.6h43.4V252h-43.4V208.6z"/>
<path class="st0" d="M459,199.9h-60.7v60.7H459V199.9z M450.3,251.9h-43.4v-43.4h43.4V251.9z"/>
<path class="st0" d="M242.1,416.7h60.7V356h-60.7V416.7z M250.8,364.7h43.4v43.4h-43.4V364.7z"/>
<path class="st0" d="M285.5,217.2h-26v26h26V217.2z"/>
<path class="st0" d="M441.6,217.2h-26v26h26V217.2z"/>
<path class="st0" d="M285.5,373.3h-26v26h26V373.3z"/>
<path class="st1" d="M425.4,513.3l0.3-17.3h-3.3l0.3,17.3H425.4z"/>
<path class="st1" d="M425.5,517.3c-0.3-0.3-0.8-0.5-1.4-0.5s-1.1,0.2-1.4,0.5c-0.3,0.3-0.4,0.8-0.4,1.3s0.2,0.9,0.4,1.2
	c0.3,0.4,0.8,0.5,1.4,0.5s1-0.2,1.4-0.5c0.3-0.3,0.5-0.8,0.5-1.2C426,518.1,425.8,517.6,425.5,517.3z"/>
<path class="st1" d="M406.4,508.9h10.4v-2.6h-10.4v-7.7h12V496h-12h-0.7h-2.5v24.1h2.5h0.7h12.1v-2.6h-12.1V508.9z"/>
<path class="st1" d="M394.8,496h-1.3l-7.9,19.6l-7.9-19.6h-1.4h-1.7h-1v24.1h3.2v-9.4l-0.4-10.1l8,19.5h2.4l7.9-19.5l-0.3,10.1v9.4
	h3.2V496h-1H394.8z"/>
<path class="st1" d="M356.3,514.6L344.1,496h-3.2v24.1h3.2v-18.6l12.2,18.6h3.2V496h-3.2V514.6z"/>
<path class="st1" d="M327.8,496h-1.4h-0.7l-9.2,24.1h3.3l2.3-6.3h10.1l2.3,6.3h3.3l-9.2-24.1H327.8z M323,511.2l4.1-11.3l4.1,11.3
	H323z"/>
<path class="st1" d="M299.5,503.3c0.3-1,0.7-1.9,1.2-2.7c0.6-0.8,1.2-1.3,2-1.7c0.8-0.4,1.8-0.6,2.8-0.6c1.3,0,2.3,0.2,3,0.7
	c0.8,0.4,1.4,1.1,1.8,1.9c0.4,0.8,0.7,1.8,0.9,2.9h3.2c-0.2-1.6-0.6-3-1.3-4.2c-0.7-1.2-1.7-2.2-2.9-2.9c-1.3-0.7-2.8-1-4.6-1
	c-1.5,0-2.8,0.3-4,0.8s-2.2,1.3-3.1,2.3c-0.8,1-1.5,2.2-1.9,3.5c-0.4,1.4-0.7,2.9-0.7,4.6v2.4c0,1.7,0.2,3.2,0.7,4.6
	c0.4,1.4,1.1,2.5,1.9,3.5c0.8,1,1.8,1.7,3,2.3c1.2,0.5,2.4,0.8,3.9,0.8c1.9,0,3.5-0.3,4.8-1c1.3-0.7,2.3-1.7,3-2.9
	c0.7-1.2,1.1-2.6,1.3-4.1h-3.2c-0.2,1.1-0.5,2.1-0.9,2.9c-0.4,0.8-1,1.4-1.8,1.8s-1.9,0.7-3.2,0.7c-1.1,0-2-0.2-2.8-0.7
	s-1.4-1.1-1.9-1.9c-0.5-0.8-0.9-1.7-1.1-2.7c-0.2-1-0.4-2.2-0.4-3.3v-2.4C299.1,505.5,299.2,504.4,299.5,503.3z"/>
<path class="st1" d="M290.7,509.4c-0.6-0.6-1.5-1.1-2.4-1.6c-1-0.5-2.2-0.9-3.6-1.3c-1-0.3-1.8-0.6-2.6-0.9c-0.7-0.3-1.3-0.6-1.8-1
	c-0.4-0.4-0.8-0.7-1-1.1c-0.2-0.4-0.3-0.9-0.3-1.4c0-0.8,0.2-1.4,0.5-2c0.4-0.6,0.9-1,1.6-1.4s1.7-0.5,2.8-0.5c1.2,0,2.2,0.2,3,0.6
	c0.8,0.4,1.4,1,1.8,1.6c0.4,0.7,0.6,1.5,0.6,2.4h3.2c0-1.3-0.3-2.4-1-3.5c-0.7-1.1-1.6-2-2.9-2.7c-1.3-0.7-2.8-1-4.6-1
	c-1.2,0-2.4,0.2-3.4,0.5c-1,0.3-1.9,0.8-2.6,1.4c-0.7,0.6-1.3,1.3-1.6,2.1c-0.4,0.8-0.6,1.7-0.6,2.6s0.2,1.8,0.5,2.5
	c0.4,0.7,0.9,1.4,1.6,1.9c0.7,0.6,1.5,1.1,2.5,1.5c1,0.4,2,0.8,3.2,1.2c1.1,0.3,2.1,0.7,2.8,1c0.8,0.3,1.3,0.6,1.8,1
	c0.4,0.4,0.7,0.8,0.9,1.2c0.2,0.4,0.3,0.9,0.3,1.5c0,0.8-0.2,1.5-0.6,2c-0.4,0.6-1,1-1.8,1.3c-0.8,0.3-1.7,0.5-2.8,0.5
	c-0.8,0-1.5-0.1-2.2-0.3c-0.7-0.2-1.3-0.5-1.9-0.9c-0.6-0.4-1-0.9-1.3-1.5c-0.3-0.6-0.5-1.3-0.5-2.1h-3.2c0,1.2,0.3,2.3,0.8,3.2
	s1.2,1.7,2.1,2.3c0.9,0.6,1.9,1.1,2.9,1.4c1.1,0.3,2.2,0.5,3.3,0.5c1.3,0,2.4-0.1,3.4-0.4s1.9-0.7,2.7-1.3c0.7-0.6,1.3-1.2,1.7-2
	c0.4-0.8,0.6-1.7,0.6-2.7c0-0.9-0.2-1.8-0.5-2.5C291.8,510.7,291.4,510,290.7,509.4z"/>
</svg>
