<?xml version="1.0" encoding="utf-8"?>
<!-- Generator: Adobe Illustrator 26.3.1, SVG Export Plug-In . SVG Version: 6.00 Build 0)  -->
<svg version="1.1" id="Слой_1" xmlns="http://www.w3.org/2000/svg" xmlns:xlink="http://www.w3.org/1999/xlink" x="0px" y="0px"
	 viewBox="0 0 700 700" style="enable-background:new 0 0 700 700;" xml:space="preserve">
<style type="text/css">
	.st0{fill:#FFFFFF;}
	.st1{fill:#020203;}
</style>
<g>
	<path class="st0" d="M355.4,373.3h-9.5v9.5h9.5V373.3z"/>
	<path class="st0" d="M296.6,363.5h-9.5v9.5h9.5V363.5z"/>
	<path class="st0" d="M316.2,392.8h-9.5v9.5h9.5V392.8z"/>
	<path class="st0" d="M394.8,402.6v9.5v0.3v9.5h9.5h0.3h9.5v-9.5v-0.3v-9.5h-9.5h-0.3H394.8z"/>
	<path class="st0" d="M375.3,461.4h-9.8v9.5h9.5h0.3h9.5v-9.5v-0.3v-9.5h-9.5V461.4z"/>
	<path class="st0" d="M345.6,343.9v-0.3v-9.5h-9.5v9.5v0.3v9.5h9.5V343.9z"/>
	<path class="st0" d="M345.9,304.4h9.5v-9.5h-9.5h-0.3h-9.5h-0.3h-9.5v9.5v0.3v9.5h9.5v-9.8h9.8H345.9z"/>
	<path class="st0" d="M335.8,324.3h-9.5v9.5h9.5V324.3z"/>
	<path class="st0" d="M375,383h-9.5v9.5h9.5V383z"/>
	<path class="st0" d="M237.9,333.8h49v-49h-49V333.8z M247.7,294.6h29.4V324h-29.4V294.6z"/>
	<path class="st0" d="M414.1,333.8h49v-49h-49V333.8z M423.9,294.6h29.4V324h-29.4V294.6z"/>
	<path class="st0" d="M286.8,461.1h-49v49h49V461.1z M277.1,500.3h-29.4v-29.4h29.4V500.3z"/>
	<path class="st0" d="M247.7,373.3h-9.5v9.5v0.2v9.5h9.5v-9.7h9.8v-9.5H248H247.7z"/>
	<path class="st0" d="M375,294.9h-9.5v9.5h9.5V294.9z"/>
	<path class="st0" d="M267.3,363.5h-9.5v9.5h9.5h0.3h9.5v-9.5h-9.5H267.3z"/>
	<path class="st0" d="M326,334.1h-9.5v9.5h9.5V334.1z"/>
	<path class="st0" d="M414.1,441.8h-9.5h-0.3h-9.5v9.5v0.3v9.5v0.3v9.5h9.5h0.3h9.5h0.3h9.5v-9.5v-0.3v-9.5v-0.3v-9.5h-9.5H414.1z
		 M414.4,461.4h-10.1v-10.1h10.1V461.4z"/>
	<path class="st0" d="M443.8,510h9.5h0.3h9.5v-9.5v-0.2v-9.5v-0.3V481h-9.5v9.5v0.3v9.7h-9.8V510z"/>
	<path class="st0" d="M433.7,412.4v-0.3v-9.5h-9.5v9.5v0.3v9.5h9.5V412.4z"/>
	<path class="st0" d="M434,490.8h-9.8v9.5h9.5h0.3h9.5v-9.5v-0.3V481H434V490.8z"/>
	<path class="st0" d="M443.5,432H434v9.5h9.5V432z"/>
	<path class="st0" d="M453.3,461.4h-9.5v9.5h9.5V461.4z"/>
	<path class="st0" d="M453.3,373.3V373v-9.5h-9.5h-0.3H434h-0.3h-9.5v9.5h9.5h0.3h9.8v10H434v9.5v0.3v9.5h9.5v-9.8h9.8h0.3h9.5V383
		h-9.8V373.3z"/>
	<path class="st0" d="M404.3,490.8h-9.5v9.5h9.5h0.3h9.5v-9.5h-9.5H404.3z"/>
	<path class="st0" d="M404.3,383h-9.5h-0.2h-9.5v9.8h-9.8v9.8h-10.1v-9.8h-9.5v9.8h-9.8h-0.3h-9.8v-9.8h-9.5v9.5v0.3v9.5v0.3v9.5
		h9.5v-9.8h9.8h0.3h9.8v10.1h-9.8v9.5v0.3v9.5h9.5h0.3h9.5h0.3h9.5V432h-9.8v-10.1h9.8v-9.8h9.8v-9.8h9.8v-9.8h9.7V383z"/>
	<path class="st0" d="M423.9,481h-9.5v9.5h9.5V481z"/>
	<path class="st0" d="M394.6,422.2h-9.5v9.5h9.5V422.2z"/>
	<path class="st0" d="M423.9,392.8h-9.5v9.5h9.5V392.8z"/>
	<path class="st0" d="M486.7,149.7H214.2c-7.7,0-14,6.3-14,14v74.8h300.5v-74.8C500.7,155.9,494.5,149.7,486.7,149.7z M467.2,181.8
		l-0.3,27.1h-4.3l-0.4-27.1H467.2z M258.3,214.1c-0.6,1.2-1.5,2.3-2.7,3.2c-1.2,0.9-2.5,1.6-4.2,2c-1.6,0.5-3.4,0.7-5.4,0.7
		c-1.7,0-3.5-0.2-5.2-0.7c-1.7-0.5-3.2-1.2-4.6-2.2s-2.5-2.2-3.3-3.6c-0.8-1.4-1.2-3.1-1.2-5h5c0,1.3,0.3,2.4,0.8,3.3
		c0.5,0.9,1.2,1.7,2.1,2.3c0.9,0.6,1.9,1.1,3,1.3c1.1,0.3,2.3,0.4,3.5,0.4c1.7,0,3.2-0.2,4.4-0.7c1.2-0.5,2.1-1.2,2.7-2.1
		c0.6-0.9,1-2,1-3.2c0-0.9-0.1-1.7-0.4-2.3c-0.3-0.7-0.7-1.3-1.4-1.9c-0.7-0.6-1.6-1.1-2.8-1.6c-1.1-0.5-2.6-1-4.4-1.5
		c-1.9-0.6-3.6-1.2-5.1-1.8c-1.5-0.7-2.8-1.5-3.9-2.4c-1.1-0.9-1.9-1.9-2.5-3c-0.6-1.1-0.9-2.4-0.9-3.9s0.3-2.8,0.9-4.1
		c0.6-1.2,1.5-2.3,2.6-3.2c1.1-0.9,2.5-1.7,4.1-2.2c1.6-0.5,3.3-0.8,5.3-0.8c2.8,0,5.2,0.5,7.2,1.6s3.5,2.5,4.5,4.2s1.5,3.6,1.5,5.5
		h-5c0-1.4-0.3-2.7-0.9-3.8c-0.6-1.1-1.5-2-2.7-2.6c-1.2-0.6-2.8-1-4.7-1c-1.8,0-3.3,0.3-4.4,0.8s-2,1.3-2.6,2.2
		c-0.5,0.9-0.8,2-0.8,3.1c0,0.8,0.2,1.5,0.5,2.2c0.3,0.6,0.9,1.2,1.6,1.8c0.7,0.6,1.6,1.1,2.7,1.5c1.1,0.5,2.5,0.9,4,1.3
		c2.1,0.6,4,1.3,5.5,2s2.8,1.6,3.8,2.5c1,0.9,1.8,2,2.3,3.1c0.5,1.2,0.8,2.5,0.8,3.9C259.2,211.5,258.9,212.9,258.3,214.1z
		 M269.9,207.8c0.4,1.6,1,3,1.8,4.3c0.8,1.2,1.8,2.2,3,2.9s2.7,1,4.4,1c2.1,0,3.8-0.3,5.1-1s2.2-1.6,2.9-2.9
		c0.7-1.3,1.1-2.8,1.4-4.5h5c-0.3,2.4-0.9,4.5-2,6.4c-1.1,1.9-2.7,3.4-4.7,4.5c-2,1.1-4.5,1.6-7.6,1.6c-2.2,0-4.2-0.4-6-1.2
		s-3.3-2-4.6-3.5c-1.3-1.5-2.3-3.4-3-5.5c-0.7-2.2-1-4.6-1-7.2v-3.8c0-2.6,0.3-5,1-7.2c0.7-2.2,1.7-4,3-5.5c1.3-1.5,2.9-2.7,4.8-3.5
		c1.9-0.8,4-1.2,6.3-1.2c2.9,0,5.3,0.5,7.2,1.6c2,1.1,3.5,2.6,4.6,4.5c1.1,1.9,1.8,4.1,2,6.6h-5c-0.2-1.8-0.7-3.3-1.4-4.5
		c-0.6-1.3-1.6-2.3-2.8-3c-1.2-0.7-2.8-1-4.7-1c-1.7,0-3.1,0.3-4.4,1c-1.3,0.6-2.3,1.5-3.2,2.7c-0.8,1.2-1.5,2.6-1.9,4.2
		c-0.4,1.6-0.7,3.5-0.7,5.5v3.8C269.3,204.4,269.5,206.2,269.9,207.8z M324.6,219.6l-3.6-9.9h-15.8l-3.6,9.9h-5.1l14.4-37.7h1.1h2.2
		h1.1l14.4,37.7H324.6z M363.7,219.6h-5l-19-29.1v29.1h-5v-37.8h5l19.1,29.2v-29.2h5L363.7,219.6L363.7,219.6z M423.3,219.6h-5
		v-14.8l0.5-15.8l-12.4,30.5h-3.8l-12.3-30.4l0.5,15.8v14.7h-5v-37.8h1.6h2.7h2.1l12.4,30.7l12.3-30.7h2.1h2.7h1.6V219.6z
		 M456,219.6h-18.9h-1h-4v-37.8h4h1h18.7v4.1h-18.7v12.2h16.3v4h-16.3v13.4H456V219.6z M466.9,219.1c-0.5,0.5-1.2,0.8-2.1,0.8
		s-1.6-0.3-2.1-0.8s-0.7-1.2-0.7-1.9c0-0.8,0.2-1.4,0.7-2c0.5-0.5,1.2-0.8,2.1-0.8s1.6,0.3,2.1,0.8s0.8,1.2,0.8,2
		C467.7,217.9,467.4,218.5,466.9,219.1z"/>
	<path class="st0" d="M306.7,205.6h12.8l-6.4-17.6L306.7,205.6z"/>
	<path class="st1" d="M466.4,215.2c-0.5-0.5-1.2-0.8-2.1-0.8s-1.6,0.3-2.1,0.8s-0.7,1.2-0.7,2c0,0.7,0.2,1.4,0.7,1.9
		s1.2,0.8,2.1,0.8s1.6-0.3,2.1-0.8s0.8-1.2,0.8-1.9C467.2,216.4,466.9,215.7,466.4,215.2z"/>
	<path class="st1" d="M466.3,208.9l0.4-27.1h-5.1l0.4,27.1H466.3z"/>
	<path class="st1" d="M436.6,202.1h16.3v-4h-16.3v-12.2h18.6v-4.1h-18.6h-1.1h-3.9v37.8h3.9h1.1h18.9v-4.1h-18.9V202.1z"/>
	<path class="st1" d="M418.5,181.8h-2.1L404,212.6l-12.3-30.8h-2.2h-2.7h-1.6v37.8h5v-14.8l-0.5-15.7l12.4,30.5h3.8l12.4-30.5
		l-0.5,15.7v14.8h5v-37.8h-1.6H418.5z"/>
	<path class="st1" d="M358.3,211l-19.1-29.2h-5v37.8h5v-29.1l19,29.1h5v-37.8h-4.9V211z"/>
	<path class="st1" d="M313.7,181.8h-2.2h-1.1L296,219.5h5.1l3.6-9.9h15.8l3.6,9.9h5.1l-14.4-37.7H313.7z M306.2,205.6l6.4-17.6
		l6.4,17.6H306.2z"/>
	<path class="st1" d="M269.4,193.3c0.4-1.6,1.1-3,1.9-4.2c0.9-1.2,1.9-2.1,3.2-2.7c1.3-0.6,2.8-1,4.4-1c2,0,3.5,0.3,4.7,1
		c1.2,0.7,2.1,1.7,2.8,3c0.7,1.3,1.1,2.8,1.4,4.5h5c-0.3-2.5-0.9-4.7-2-6.6c-1.1-1.9-2.6-3.4-4.6-4.5c-2-1.1-4.4-1.6-7.2-1.6
		c-2.3,0-4.4,0.4-6.3,1.2s-3.5,2-4.8,3.5c-1.3,1.5-2.3,3.4-3,5.5c-0.7,2.1-1,4.5-1,7.2v3.8c0,2.6,0.3,5,1,7.2c0.7,2.1,1.7,4,3,5.5
		c1.3,1.5,2.8,2.7,4.6,3.5c1.8,0.8,3.8,1.2,6,1.2c3,0,5.5-0.5,7.6-1.6c2-1.1,3.6-2.6,4.7-4.5s1.8-4,2-6.4h-5
		c-0.3,1.8-0.7,3.3-1.4,4.5c-0.6,1.3-1.6,2.2-2.9,2.9c-1.3,0.7-2.9,1-5.1,1c-1.7,0-3.1-0.3-4.4-1c-1.2-0.7-2.2-1.7-3-2.9
		c-0.8-1.2-1.4-2.7-1.8-4.3c-0.4-1.6-0.6-3.4-0.6-5.2v-3.8C268.8,196.8,269,195,269.4,193.3z"/>
	<path class="st1" d="M255.7,202.9c-1-0.9-2.3-1.8-3.8-2.5c-1.6-0.7-3.4-1.4-5.5-2c-1.6-0.4-2.9-0.9-4-1.3c-1.1-0.5-2-1-2.7-1.5
		c-0.7-0.6-1.2-1.1-1.6-1.8c-0.3-0.7-0.5-1.4-0.5-2.2c0-1.2,0.3-2.2,0.8-3.1c0.6-0.9,1.4-1.6,2.6-2.2c1.2-0.5,2.6-0.8,4.4-0.8
		c1.9,0,3.4,0.3,4.7,1c1.2,0.6,2.1,1.5,2.7,2.6c0.6,1.1,0.9,2.3,0.9,3.8h5c0-2-0.5-3.8-1.5-5.5s-2.6-3.2-4.5-4.2
		c-2-1.1-4.4-1.6-7.2-1.6c-1.9,0-3.7,0.3-5.3,0.8s-2.9,1.2-4.1,2.2c-1.1,0.9-2,2-2.6,3.2c-0.6,1.2-0.9,2.6-0.9,4.1s0.3,2.8,0.9,3.9
		c0.6,1.1,1.4,2.1,2.5,3c1.1,0.9,2.4,1.7,3.9,2.4s3.2,1.3,5.1,1.8c1.8,0.5,3.3,1,4.4,1.5c1.2,0.5,2.1,1,2.8,1.6
		c0.7,0.6,1.1,1.2,1.4,1.9c0.3,0.7,0.4,1.4,0.4,2.3c0,1.2-0.3,2.3-1,3.2c-0.6,0.9-1.5,1.6-2.7,2.1c-1.2,0.5-2.7,0.7-4.4,0.7
		c-1.2,0-2.4-0.1-3.5-0.4c-1.1-0.3-2.1-0.7-3-1.3c-0.9-0.6-1.6-1.4-2.1-2.3c-0.5-0.9-0.8-2-0.8-3.3h-5c0,1.9,0.4,3.5,1.2,5
		c0.8,1.4,1.9,2.6,3.3,3.6c1.4,1,2.9,1.7,4.6,2.2c1.7,0.5,3.4,0.7,5.2,0.7c2,0,3.8-0.2,5.4-0.7s3-1.2,4.2-2c1.2-0.9,2-1.9,2.7-3.2
		c0.6-1.2,0.9-2.6,0.9-4.2c0-1.5-0.3-2.8-0.8-3.9C257.5,204.9,256.7,203.8,255.7,202.9z"/>
	<path class="st1" d="M365.2,344.4v0.3v9.8h10.1v-9.8v-0.3v-9.8h-10.1V344.4z"/>
	<path class="st1" d="M384.8,344.4v0.3v9.8h10v-9.8v-0.3v-9.8h-10V344.4z"/>
	<path class="st1" d="M463.4,373.8V364h-9.8v-9.8h-9.8h-0.3H434h-0.3h-9.5h-0.3h-9.5h-0.3h-9.8v10.1h9.8v9.5h-9.5h-0.3h-9.5h-0.3
		H385V364h-9.8h-0.3h-9.5h-0.3h-9.5h-0.3h-9.5v-9.5h9.8v-9.8v-0.3v-9.5v-0.3v-9.5v-0.3v-9.5V315v-9.5h9.5v9.8h9.8v9.8h9.8h0.3h9.8
		V315H385v-9.5v-0.3v-9.5h9.8v-10.1H385v-9.8h-9.8h-0.3h-9.5h-0.3h-9.5h-0.3h-9.5h-0.3h-9.8v9.8h-9.5v-9.8h-10.1v10.1h9.8v9.5h-9.5
		h-0.3h-9.8v9.8v0.3v9.5v0.3v9.5v0.3v9.5v0.3v9.5v0.3v9.8h9.8h0.3h9.5h0.3h9.5v9.8h9.8v9.5H336h-0.3h-9.5h-0.3h-9.5V364h-9.8h-0.3
		h-9.5v-9.8H287h-0.3h-9.5h-0.3h-9.5h-0.3h-9.5h-0.3h-9.8v9.8H238v-9.8h-10.1v9.8v0.3v9.5v0.3v9.5v0.3v9.5v0.3v9.5v0.3v9.5v0.3v9.5
		v0.3v9.5v0.3v9.8H238v-9.8v-0.3v-9.5v-0.3v-9.5V413v-9.5h9.5h0.3h9.5h0.3h9.5h0.3h9.8v-10.1h-9.8h-0.3h-9.5v-9.5h9.5h0.3h9.5h0.3
		h9.5h0.3h9.8v-9.8h9.5h0.3h9.5v9.5h-9.8v9.8h-9.5h-0.3h-9.8v10.1h9.8h0.3h9.5v9.5h-9.5h-0.3H287h-0.3h-9.8v9.8h-9.5h-0.3h-9.5V413
		h-9.9v9.8v0.3v9.8h9.8h0.3h9.5v9.8h9.8h0.3h9.5h0.3h9.8v-10.1h-9.8v-9.5h9.5h0.3h9.8v-9.8h9.5v9.5v0.3v9.5v0.3v9.5h-9.8v10.1h9.8
		v9.5h-9.8v9.8v0.3v9.5v0.3v9.5v0.3v9.8h9.8h0.3h9.5h0.3h9.5v9.5h-9.8v10.1h9.8h0.3h9.8v-9.8V511v-9.5h9.8v-10.1H346h-0.3h-9.5h-0.3
		h-9.5v-9.8h-9.8v-9.5v-0.3v-9.5h9.5v9.8h10.1v-9.8V462v-9.9h-9.8v-9.5v-0.3v-9.5h9.5v9.8h9.8v9.8h9.8v9.5h-9.8v9.8v0.3v9.8h10.1
		V472h9.5v9.8h9.8v9.8h9.8v9.5h-9.5h-0.3h-9.8v10.1h9.8v9.8h10.1v-9.8h9.5h0.3h9.5h0.3h9.5v9.8h9.8h0.3h9.5h0.3h9.5h0.3h9.5h0.3h9.5
		h0.3h9.8v-9.8v-0.3v-9.5v-0.3v-9.5v-0.3v-9.8h-9.8V472v-0.3v-9.5h9.8v-10.1h-9.8h-0.3h-9.5v-9.5v-0.3v-9.8H444V423v-0.3v-9.5v-0.3
		v-9.5h9.5v9.5v0.3v9.8h9.8v9.8h10.1V423v-0.3v-9.8h-9.8v-9.5h9.8v-9.8v-0.3v-9.5v-0.3v-9.8L463.4,373.8z M238.2,393.4v-9.5v-0.3
		v-9.5h9.5h0.3h9.5v9.5h-9.8v9.8H238.2z M267.6,373.8h-0.3h-9.5v-9.5h9.5h0.3h9.5v9.5H267.6z M287.1,364.3h9.5v9.5h-9.5V364.3z
		 M423.9,403.2h-9.5v-9.5h9.5V403.2z M453.3,471.7h-9.5v-9.5h9.5V471.7z M443.5,491.6v9.5H434h-0.3h-9.5v-9.5h9.8v-9.8h9.5v9.5
		V491.6z M423.9,491.3h-9.5v-9.5h9.5V491.3z M385.1,432.5V423h9.5v9.5H385.1z M394.8,461.9v-9.5v-0.3v-9.5h9.5h0.3h9.5h0.3h9.5v9.5
		v0.3v9.5v0.3v9.5h-9.5h-0.3h-9.5h-0.3h-9.5v-9.5V461.9z M434,442.3v-9.5h9.5v9.5H434z M414.1,413.2v9.5h-9.5h-0.3h-9.5v-9.5v-0.3
		v-9.5h9.5h0.3h9.5v9.5V413.2z M375,393.4h-9.5v-9.5h9.5V393.4z M355.4,383.6h-9.5v-9.5h9.5V383.6z M345.6,344.7v9.5h-9.5v-9.5v-0.3
		v-9.5h9.5v9.5V344.7z M335.8,334.6h-9.5v-9.5h9.5V334.6z M365.5,305.2v-9.5h9.5v9.5H365.5z M336.1,295.7h9.5h0.3h9.5v9.5h-9.5h-0.3
		h-9.8v9.8h-9.5v-9.5v-0.3v-9.5h9.5H336.1z M316.5,344.4v-9.5h9.5v9.5H316.5z M306.7,403.2v-9.5h9.5v9.5H306.7z M345.9,442.3v-9.5
		v-0.3V423h9.8v-10.1h-9.8h-0.3h-9.8v9.8h-9.5v-9.5v-0.3v-9.5v-0.3v-9.5h9.5v9.8h9.8h0.3h9.8v-9.8h9.5v9.8h10.1v-9.8h9.8v-9.8h9.5
		h0.3h9.5v9.5h-9.8v9.8h-9.8v9.8H375v9.8h-9.8v10.1h9.8v9.5h-9.5h-0.3h-9.5h-0.3H345.9z M365.5,471.7v-9.5h9.8v-9.8h9.5v9.5v0.3v9.5
		h-9.5H375H365.5z M404.6,501.1h-0.3h-9.5v-9.5h9.5h0.3h9.5v9.5H404.6z M463.1,491.6v9.5v0.3v9.5h-9.5h-0.3h-9.5v-9.5h9.8v-9.8v-0.3
		v-9.5h9.5v9.5V491.6z M433.7,413.2v9.5h-9.5v-9.5v-0.3v-9.5h9.5v9.5V413.2z M443.5,393.4v9.8H434v-9.5v-0.3v-9.5h9.8v-10.1H434
		h-0.3h-9.5v-9.5h9.5h0.3h9.5h0.3h9.5v9.5v0.3v9.8h9.8v9.5h-9.5h-0.3H443.5z"/>
	<path class="st1" d="M414.4,452.1h-10.1v10.1h10.1V452.1z"/>
	<path class="st1" d="M316.5,510.9h-10.1V521h10.1V510.9z"/>
	<path class="st1" d="M296.6,275.9h-68.5v68.5h68.5V275.9z M286.8,334.6h-49v-49h49V334.6z"/>
	<path class="st1" d="M472.9,275.9h-68.5v68.5h68.5V275.9z M463.1,334.6h-49v-49h49V334.6z"/>
	<path class="st1" d="M228.1,520.7h68.5v-68.6h-68.5V520.7z M237.9,461.9h49v49h-49V461.9z"/>
	<path class="st1" d="M277.1,295.4h-29.4v29.4h29.4V295.4z"/>
	<path class="st1" d="M453.3,295.4h-29.4v29.4h29.4V295.4z"/>
	<path class="st1" d="M277.1,471.7h-29.4v29.4h29.4V471.7z"/>
	<path class="st1" d="M486.7,137.7H214.2c-14.3,0-26,11.7-26,26V537c0,14.3,11.7,26,26,26h272.5c14.3,0,26-11.7,26-26V163.7
		C512.7,149.3,501.1,137.7,486.7,137.7z M500.7,537c0,7.7-6.3,14-14,14H214.2c-7.7,0-14-6.3-14-14V250.4h300.5V537z M500.7,238.4
		H200.2v-74.7c0-7.7,6.3-14,14-14h272.5c7.7,0,14,6.3,14,14V238.4z"/>
	<path class="st0" d="M200.2,250.4v286.5c0,7.7,6.3,14,14,14h272.5c7.7,0,14-6.3,14-14V250.4H200.2z M404.3,275h68.5v68.5h-68.5V275
		z M228.1,275h68.5v68.5h-68.5V275z M296.6,519.8h-68.5v-68.5h68.5V519.8z M316.5,520.1h-10.1V510h10.1V520.1z M473.2,402.6h-9.8
		v9.5h9.8V432h-10.1v-9.8h-9.8v-19.6h-9.5v29.1h9.8v19.6h19.6v10.1h-9.8v19.3h9.8v39.4h-59v-9.8h-29.1v9.8H375v-9.8h-9.8v-10.1h19.6
		v-9.5H375v-9.8h-9.8v-9.8h-9.5v9.8h-10.1v-19.8h9.8v-9.5h-9.8v-9.8h-9.8V432h-9.5v19.3h9.8v19.9H326v-9.8h-9.5v19.3h9.8v9.8h29.4
		v10.1h-9.8v19.5H326V510h9.8v-9.5h-29.4v-39.4h9.8v-9.5h-9.8v-10.1h9.8v-29.1h-9.5v9.8h-19.6v9.5h9.8v10.1h-29.7V432h-19.5v-19.9
		h10.1v9.8h19.3v-9.8h29.4v-9.5h-19.6v-10.1h19.6v-9.8h9.8v-9.5H297v9.8h-39.2v9.5h19.6v10.1h-39.2v39.2h-10.1v-88.4h10.1v9.8h9.5
		v-9.8H297v9.8h19.6v9.8h29.1v-9.5h-9.8v-9.8h-29.4v-59h19.6v-9.6h-9.8V275h10.1v9.8h9.5V275h49.3v9.8h9.8v10.1h-9.8v19.3h9.8v10.1
		h-19.9v-9.8h-9.8v-9.8h-9.5v49H346v9.5h39.2v9.8h29.1v-9.5h-9.8v-10.1h49.3v9.8h9.8v9.8h9.8v29.6H473.2z M394.8,333.8v19.9h-10.1
		v-19.9H394.8z M375.3,333.8v19.9h-10.1v-19.9H375.3z"/>
</g>
</svg>
