<?xml version="1.0" encoding="utf-8"?>
<!-- Generator: Adobe Illustrator 26.3.1, SVG Export Plug-In . SVG Version: 6.00 Build 0)  -->
<svg version="1.1" id="Слой_1" xmlns="http://www.w3.org/2000/svg" xmlns:xlink="http://www.w3.org/1999/xlink" x="0px" y="0px"
	 viewBox="0 0 700 700" style="enable-background:new 0 0 700 700;" xml:space="preserve">
<style type="text/css">
	.st0{fill:#FFFFFF;}
	.st1{fill-rule:evenodd;clip-rule:evenodd;fill:#020203;}
	.st2{fill-rule:evenodd;clip-rule:evenodd;fill:#FFFFFF;}
	.st3{fill:#020203;}
</style>
<path class="st0" d="M326.8,338.9h-6.6v6.5h6.6V338.9z"/>
<path class="st0" d="M381.1,345.7v6.5v0.2v6.6h6.5h0.2h6.6v-6.6v-0.2v-6.5h-6.6h-0.2H381.1z"/>
<path class="st0" d="M313.2,318.6h-6.5v6.5h6.5V318.6z"/>
<path class="st0" d="M367.3,332.1h-6.5v6.6h6.5V332.1z"/>
<path class="st0" d="M347.3,277.8h6.5v-6.5h-6.5H347h-6.5h-0.2h-6.5v6.5v0.3v6.5h6.5v-6.8h6.7H347.3z"/>
<path class="st0" d="M347,305.1v-0.2v-6.6h-6.5v6.6v0.2v6.5h6.5V305.1z"/>
<path class="st0" d="M353.8,325.4h-6.5v6.5h6.5V325.4z"/>
<path class="st0" d="M340.3,291.6h-6.5v6.5h6.5V291.6z"/>
<path class="st0" d="M333.5,298.3H327v6.6h6.5V298.3z"/>
<path class="st0" d="M357.5,459.7h9.7l-4.8-13.3L357.5,459.7z"/>
<path class="st0" d="M293,318.6h-6.6v6.5h6.6h0.2h6.5v-6.5h-6.5H293z"/>
<path class="st0" d="M272.7,419.8h33.8V386h-33.8V419.8z M279.5,392.8h20.3v20.3h-20.3V392.8z"/>
<path class="st0" d="M394.4,298.1h33.8v-33.8h-33.8V298.1z M401.2,271.1h20.3v20.3h-20.3V271.1z"/>
<path class="st0" d="M272.7,298.1h33.8v-33.8h-33.8V298.1z M279.5,271.1h20.3v20.3h-20.3V271.1z"/>
<path class="st0" d="M367.3,271.3h-6.5v6.5h6.5V271.3z"/>
<path class="st0" d="M279.4,325.4h-6.5v6.5v0.2v6.6h6.5v-6.8h6.8v-6.5h-6.5H279.4z"/>
<path class="st0" d="M367.6,386.2h-6.8v6.6h6.5h0.3h6.5v-6.6V386v-6.5h-6.5V386.2z"/>
<path class="st0" d="M414.7,366h-6.6v6.5h6.6V366z"/>
<path class="st0" d="M414.9,419.8h6.5h0.3h6.5v-6.5V413v-6.5v-0.2v-6.5h-6.5v6.5v0.2v6.8h-6.8V419.8z"/>
<path class="st0" d="M421.4,386.2h-6.5v6.6h6.5V386.2z"/>
<path class="st0" d="M408.1,406.5h-6.7v6.5h6.5h0.2h6.6v-6.5v-0.2v-6.5h-6.6V406.5z"/>
<path class="st0" d="M421.4,325.4v-0.3v-6.5h-6.5h-0.2h-6.6h-0.2h-6.5v6.5h6.5h0.2h6.8v7h-6.8v6.6v0.2v6.5h6.6v-6.7h6.7h0.3h6.5
	v-6.6h-6.8V325.4z"/>
<path class="st0" d="M407.9,352.4v-0.2v-6.5h-6.5v6.5v0.2v6.6h6.5V352.4z"/>
<path class="st0" d="M380.8,359.2h-6.5v6.5h6.5V359.2z"/>
<path class="st0" d="M387.6,332.1h-6.5h-0.3h-6.5v6.8h-6.7v6.8h-7v-6.8H354v6.8h-6.7H347h-6.7v-6.8h-6.5v6.5v0.3v6.5v0.2v6.6h6.5
	v-6.8h6.7h0.3h6.7v7h-6.7v6.5v0.3v6.5h6.5h0.2h6.6h0.2h6.5V366h-6.7v-7h6.7v-6.8h6.8v-6.8h6.7v-6.7h6.8V332.1z"/>
<path class="st0" d="M401.1,399.8h-6.5v6.5h6.5V399.8z"/>
<path class="st0" d="M401.1,338.9h-6.5v6.5h6.5V338.9z"/>
<path class="st0" d="M387.6,406.5h-6.5v6.5h6.5h0.2h6.6v-6.5h-6.6H387.6z"/>
<path class="st0" d="M394.4,372.7h-6.6h-0.2h-6.5v6.5v0.3v6.5v0.2v6.6h6.5h0.2h6.6h0.2h6.5v-6.6V386v-6.5v-0.3v-6.5h-6.5H394.4z
	 M394.6,386.2h-7v-7h7V386.2z"/>
<path class="st1" d="M350.5,193.5c-85.9,0-155.5,71.1-155.5,156.9c0,85.8,69.5,156.8,155.5,156.9c85.9,0,155.5-71.1,155.5-156.9
	C506,264.5,436.4,193.5,350.5,193.5z M350.4,501.6c-82.7,0-149.8-68.4-149.8-151.2c0-82.8,67.1-151.2,149.8-151.2
	s149.8,68.4,149.8,151.2C500.2,433.2,433.1,501.6,350.4,501.6z"/>
<path class="st2" d="M350.4,199.2c-82.7,0-149.8,68.4-149.8,151.2c0,82.8,67.1,151.2,149.8,151.2s149.8-68.4,149.8-151.2
	C500.2,267.6,433.1,199.2,350.4,199.2z M387.6,257.5h47.3v47.3h-47.3V257.5z M265.9,257.5h47.3v47.3h-47.3V257.5z M265.9,379.2h47.3
	v47.3h-47.3V379.2z M305.2,450.6c0.3,0.5,0.7,1,1.2,1.4c0.6,0.4,1.3,0.8,2.1,1.2c0.9,0.4,1.9,0.7,3.1,1c1.6,0.5,3,1,4.2,1.5
	c1.2,0.6,2.2,1.2,2.9,1.9c0.8,0.7,1.4,1.5,1.7,2.4c0.4,0.9,0.6,1.9,0.6,3c0,1.2-0.2,2.2-0.7,3.2c-0.5,0.9-1.2,1.8-2,2.4
	c-0.9,0.7-1.9,1.2-3.2,1.6c-1.2,0.4-2.6,0.5-4.1,0.5c-1.3,0-2.6-0.2-3.9-0.5c-1.3-0.4-2.4-0.9-3.5-1.7c-1-0.7-1.9-1.6-2.5-2.7
	c-0.6-1.1-0.9-2.4-0.9-3.8h3.8c0,1,0.2,1.9,0.6,2.6c0.4,0.7,0.9,1.3,1.6,1.7c0.7,0.5,1.4,0.8,2.3,1c0.9,0.2,1.7,0.3,2.7,0.3
	c1.3,0,2.5-0.2,3.4-0.6c0.9-0.4,1.6-0.9,2.1-1.6c0.4-0.6,0.6-1.4,0.6-2.3c0-0.7-0.1-1.3-0.3-1.8s-0.6-1-1.1-1.4s-1.2-0.8-2.1-1.2
	c-0.9-0.4-2-0.8-3.4-1.2c-1.4-0.4-2.7-0.9-3.9-1.4c-1.1-0.5-2.1-1.1-2.9-1.8c-0.8-0.7-1.4-1.4-1.9-2.3c-0.4-0.9-0.7-1.9-0.7-3
	s0.2-2.2,0.7-3.1c0.5-1,1.1-1.8,2-2.5c0.9-0.7,1.9-1.3,3.1-1.7c1.2-0.4,2.5-0.6,4-0.6c2.2,0,4,0.4,5.5,1.3c1.5,0.8,2.7,1.9,3.5,3.2
	c0.8,1.3,1.2,2.7,1.2,4.2h-3.8c0-1.1-0.2-2-0.7-2.9s-1.2-1.5-2.1-2c-0.9-0.5-2.1-0.7-3.6-0.7c-1.4,0-2.5,0.2-3.4,0.6
	c-0.9,0.4-1.5,1-2,1.7c-0.4,0.7-0.6,1.5-0.6,2.4C304.8,449.5,304.9,450.1,305.2,450.6z M320,426.8v-7h7v7H320z M329.3,461.2
	c0.3,1.2,0.8,2.3,1.4,3.3c0.6,0.9,1.4,1.7,2.3,2.2s2,0.8,3.3,0.8c1.6,0,2.9-0.3,3.9-0.8s1.7-1.3,2.2-2.2c0.5-0.8,0.8-1.9,1-3.3h3.8
	c-0.2,1.8-0.7,3.5-1.6,4.9c-0.8,1.4-2,2.6-3.6,3.4c-1.5,0.8-3.5,1.2-5.8,1.2c-1.7,0-3.2-0.3-4.6-0.9c-1.4-0.6-2.6-1.5-3.5-2.7
	c-1-1.2-1.8-2.6-2.3-4.2s-0.8-3.5-0.8-5.5v-2.9c0-2,0.3-3.9,0.8-5.5s1.3-3.1,2.3-4.2c1-1.2,2.2-2.1,3.7-2.7c1.4-0.6,3-1,4.8-1
	c2.2,0,4,0.4,5.5,1.2c1.5,0.8,2.7,2,3.5,3.4c0.8,1.4,1.4,3.1,1.6,5h-3.8c-0.2-1.4-0.5-2.5-1-3.5s-1.2-1.7-2.1-2.3
	c-0.9-0.5-2.1-0.8-3.6-0.8c-1.3,0-2.4,0.2-3.4,0.7s-1.8,1.2-2.4,2.1c-0.6,0.9-1.1,2-1.5,3.2c-0.3,1.3-0.5,2.6-0.5,4.2v2.9
	C328.9,458.6,329,459.9,329.3,461.2z M371.1,470.3v0.1l-2.8-7.6h-12l-2.8,7.6h-3.8l11-28.8h0.7v-0.1h2.5l11,28.8H371.1z
	 M401.1,470.4h-3.8l-14.5-22.2v22.2H379v-28.8h3.8l14.6,22.3v-22.3h3.7V470.4z M435.2,345.7h-6.8v6.5h6.8V366h-7v-6.8h-6.8v-13.5
	h-6.5v20h6.8v13.5h13.5v7h-6.8v13.3h6.8v27.3h-40.8V420h-20.1v6.8h-7V420h-6.7v-7h13.5v-6.5h-6.8v-6.7h-6.7V393H354v6.8h-7V386h6.8
	v-6.5H347v-6.8h-6.7V366h-6.5v13.2h6.7V393h-7v-6.8H327v13.3h6.8v6.8H354v7h-6.7v13.5h-13.8v-7h6.8v-6.5H320V386h6.8v-6.5H320v-7
	h6.8v-20.1h-6.6v6.8h-13.5v6.5h6.8v7H293V366h-13.6v-13.8h7v6.8h13.3v-6.8H320v-6.5h-13.5v-7H320v-6.8h6.8v-6.5h-13.3v6.7h-27.1v6.6
	H300v7h-27.1v27h-7v-61.1h7v6.8h6.5v-6.8h34.1v6.8H327v6.7h20v-6.5h-6.7v-6.7H320v-40.8h13.5v-6.6h-6.7v-7h7v6.8h6.5v-6.8h34v6.8
	h6.8v7h-6.8v13.3h6.8v7h-13.8v-6.8h-6.7v-6.7H354v33.8h-6.7v6.5h27v6.7h20.1v-6.5h-6.8v-7h34.1v6.8h6.7v6.7h6.8V345.7z M381.1,298.1
	v13.8h-7v-13.8H381.1z M367.6,298.1v13.8h-7v-13.8H367.6z"/>
<path class="st3" d="M360.6,304.9v0.2v6.8h7v-6.8v-0.2v-6.8h-7V304.9z"/>
<path class="st3" d="M374.1,304.9v0.2v6.8h7v-6.8v-0.2v-6.8h-7V304.9z"/>
<path class="st3" d="M428.4,325.1v-6.7h-6.7v-6.8h-6.8h-0.2h-6.6h-0.2h-6.5h-0.3h-6.5h-0.2h-6.8v7h6.8v6.5h-6.6h-0.2h-6.5h-0.3h-6.5
	v-6.7h-6.7h-0.3h-6.5h-0.2H354h-0.2h-6.5v-6.5h6.7v-6.8v-0.2v-6.6v-0.2v-6.5v-0.3v-6.5v-0.2v-6.5h6.6v6.7h6.7v6.8h6.8h0.2h6.8v-7
	h-6.8v-6.5v-0.3v-6.5h6.8v-7h-6.8v-6.8h-6.7h-0.3h-6.5h-0.2H354h-0.2h-6.5H347h-6.7v6.8h-6.5v-6.8h-7v7h6.7v6.6H327h-0.2H320v6.7
	v0.3v6.5v0.2v6.5v0.3v6.5v0.2v6.6v0.2v6.8h6.8h0.2h6.5h0.3h6.5v6.7h6.7v6.5h-6.5h-0.2h-6.5h-0.3H327v-6.7h-6.8H320h-6.5v-6.8h-6.8
	h-0.2H300h-0.3h-6.5H293h-6.6h-0.2h-6.8v6.8h-6.5v-6.8h-7v6.8v0.2v6.5v0.3v6.5v0.2v6.6v0.2v6.5v0.3v6.5v0.2v6.6v0.2v6.5v0.3v6.7h7
	V366v-0.3v-6.5V359v-6.6v-0.2v-6.5h6.5h0.3h6.5h0.2h6.6h0.2h6.8v-7h-6.8H293h-6.6v-6.6h6.6h0.2h6.5h0.3h6.5h0.2h6.8v-6.7h6.5h0.2
	h6.6v6.5H320v6.8h-6.5h-0.3h-6.7v7h6.7h0.3h6.5v6.5h-6.5h-0.3h-6.5h-0.2h-6.8v6.8h-6.5H293h-6.6v-6.8h-7v6.8v0.2v6.8h6.8h0.2h6.6
	v6.7h6.7h0.3h6.5h0.2h6.8v-7h-6.8v-6.5h6.5h0.3h6.7v-6.8h6.6v6.6v0.2v6.5v0.3v6.5H320v7h6.8v6.5H320v6.8v0.2v6.5v0.3v6.5v0.2v6.8
	h6.8h0.2h6.5h0.3h6.5v6.5h-6.8v7h6.8h0.2h6.8V420v-0.2v-6.5h6.7v-7h-6.7H347h-6.5h-0.2h-6.5v-6.8H327V393v-0.2v-6.6h6.5v6.8h7v-6.8
	V386v-6.8h-6.7v-6.5v-0.2V366h6.5v6.7h6.7v6.8h6.8v6.5H347v6.8v0.2v6.8h7V393h6.6v6.8h6.7v6.7h6.8v6.5h-6.5h-0.3h-6.7v7h6.7v6.8h7
	V420h6.5h0.3h6.5h0.2h6.6v6.8h6.7h0.3h6.5h0.2h6.6h0.2h6.5h0.3h6.5h0.2h6.8V420v-0.2v-6.5V413v-6.5v-0.2v-6.8h-6.8V393v-0.2v-6.6
	h6.8v-7h-6.8h-0.2h-6.5v-6.5v-0.2v-6.8h-6.8v-6.5V359v-6.6v-0.2v-6.5h6.5v6.5v0.2v6.8h6.8v6.8h7v-6.8V359v-6.8h-6.8v-6.5h6.8v-6.8
	v-0.2v-6.6v-0.2v-6.8H428.4z M272.9,338.7v-6.6v-0.2v-6.5h6.5h0.3h6.5v6.5h-6.8v6.8H272.9z M293.2,325.1H293h-6.6v-6.5h6.6h0.2h6.5
	v6.5H293.2z M306.7,318.6h6.5v6.5h-6.5V318.6z M401.1,345.4h-6.5v-6.5h6.5V345.4z M421.4,392.8h-6.5v-6.6h6.5V392.8z M414.7,406.5
	v6.5h-6.6h-0.2h-6.5v-6.5h6.7v-6.7h6.6v6.5V406.5z M401.1,406.3h-6.5v-6.5h6.5V406.3z M380.8,359.2v6.5h-6.5v-6.5H380.8z M381.1,386
	v-6.5v-0.3v-6.5h6.5h0.2h6.6h0.2h6.5v6.5v0.3v6.5v0.2v6.6h-6.5h-0.2h-6.6h-0.2h-6.5v-6.6V386z M408.1,372.5V366h6.6v6.5H408.1z
	 M394.4,352.4v6.6h-6.6h-0.2h-6.5v-6.6v-0.2v-6.5h6.5h0.2h6.6v6.5V352.4z M367.3,338.7h-6.5v-6.6h6.5V338.7z M353.8,331.9h-6.5v-6.5
	h6.5V331.9z M347,305.1v6.5h-6.5v-6.5v-0.2v-6.6h6.5v6.6V305.1z M340.3,298.1h-6.5v-6.5h6.5V298.1z M360.8,277.8v-6.5h6.5v6.5H360.8
	z M340.5,271.3h6.5h0.3h6.5v6.5h-6.5H347h-6.7v6.8h-6.5v-6.5v-0.3v-6.5h6.5H340.5z M327,304.9v-6.6h6.5v6.6H327z M320.2,345.4v-6.5
	h6.6v6.5H320.2z M347.3,372.5V366v-0.3v-6.5h6.7v-7h-6.7H347h-6.7v6.8h-6.5v-6.6v-0.2v-6.5v-0.3v-6.5h6.5v6.8h6.7h0.3h6.7v-6.8h6.6
	v6.8h7v-6.8h6.7v-6.8h6.5h0.3h6.5v6.6h-6.8v6.7h-6.7v6.8h-6.8v6.8h-6.7v7h6.7v6.5h-6.5h-0.2H354h-0.2H347.3z M360.8,392.8v-6.6h6.8
	v-6.7h6.5v6.5v0.2v6.6h-6.5h-0.3H360.8z M387.8,413h-0.2h-6.5v-6.5h6.5h0.2h6.6v6.5H387.8z M428.2,406.5v6.5v0.3v6.5h-6.5h-0.3h-6.5
	v-6.5h6.8v-6.8v-0.2v-6.5h6.5v6.5V406.5z M407.9,352.4v6.6h-6.5v-6.6v-0.2v-6.5h6.5v6.5V352.4z M414.7,338.7v6.7h-6.6v-6.5v-0.2
	v-6.6h6.8v-7h-6.8h-0.2h-6.5v-6.5h6.5h0.2h6.6h0.2h6.5v6.5v0.3v6.7h6.8v6.6h-6.5h-0.3H414.7z"/>
<path class="st3" d="M394.6,379.2h-7v7h7V379.2z"/>
<path class="st3" d="M327,419.8h-7v7h7V419.8z"/>
<path class="st3" d="M313.2,257.5h-47.3v47.3h47.3V257.5z M306.5,298.1h-33.8v-33.8h33.8V298.1z"/>
<path class="st3" d="M434.9,257.5h-47.3v47.3h47.3V257.5z M428.2,298.1h-33.8v-33.8h33.8V298.1z"/>
<path class="st3" d="M265.9,426.5h47.3v-47.3h-47.3V426.5z M272.7,386h33.8v33.8h-33.8V386z"/>
<path class="st3" d="M299.8,271.1h-20.3v20.3h20.3V271.1z"/>
<path class="st3" d="M421.5,271.1h-20.3v20.3h20.3V271.1z"/>
<path class="st3" d="M299.8,392.8h-20.3v20.3h20.3V392.8z"/>
<path class="st3" d="M397.4,441.6v22.3l-14.6-22.3H379v28.8h3.8v-22.2l14.5,22.2h3.8v-28.8H397.4z"/>
<path class="st3" d="M361.4,441.5v0.1h-0.7l-11,28.8h3.9l2.7-7.6h12l2.8,7.6v-0.1h3.8l-11-28.8H361.4z M357.5,459.7l4.8-13.4
	l4.9,13.4H357.5z"/>
<path class="st3" d="M342.4,464.5c-0.5,0.9-1.2,1.7-2.2,2.2s-2.3,0.8-3.9,0.8c-1.3,0-2.4-0.3-3.3-0.8s-1.7-1.3-2.3-2.2
	c-0.6-1-1.1-2.1-1.4-3.3c-0.3-1.3-0.4-2.6-0.4-4v-2.9c0-1.6,0.2-2.9,0.5-4.2c0.4-1.2,0.9-2.3,1.5-3.2c0.6-0.9,1.4-1.6,2.4-2.1
	s2.1-0.7,3.4-0.7c1.5,0,2.7,0.3,3.6,0.8c0.9,0.6,1.6,1.3,2.1,2.3s0.8,2.1,1,3.5h3.8c-0.2-1.9-0.8-3.6-1.6-5c-0.8-1.4-2-2.6-3.5-3.4
	c-1.5-0.8-3.3-1.2-5.5-1.2c-1.8,0-3.4,0.4-4.8,1c-1.5,0.6-2.7,1.5-3.7,2.7c-1,1.1-1.8,2.6-2.3,4.2s-0.8,3.5-0.8,5.5v2.9
	c0,2,0.3,3.9,0.8,5.5s1.3,3,2.3,4.2c0.9,1.2,2.1,2.1,3.5,2.7c1.4,0.6,2.9,0.9,4.6,0.9c2.3,0,4.3-0.4,5.8-1.2c1.6-0.8,2.8-2,3.6-3.4
	c0.9-1.4,1.4-3.1,1.6-4.9h-3.8C343.2,462.6,342.9,463.7,342.4,464.5z"/>
<path class="st3" d="M307.4,444.8c0.9-0.4,2-0.6,3.4-0.6c1.5,0,2.7,0.2,3.6,0.7c0.9,0.5,1.6,1.1,2.1,2s0.7,1.8,0.7,2.9h3.8
	c0-1.5-0.4-2.9-1.2-4.2c-0.8-1.3-2-2.4-3.5-3.2c-1.5-0.9-3.3-1.3-5.5-1.3c-1.5,0-2.8,0.2-4,0.6c-1.2,0.4-2.2,1-3.1,1.7
	c-0.9,0.7-1.5,1.5-2,2.5c-0.5,0.9-0.7,2-0.7,3.1s0.3,2.1,0.7,3c0.5,0.9,1.1,1.6,1.9,2.3c0.8,0.7,1.8,1.3,2.9,1.8
	c1.2,0.5,2.5,1,3.9,1.4c1.4,0.4,2.5,0.8,3.4,1.2c0.9,0.4,1.6,0.8,2.1,1.2s0.9,0.9,1.1,1.4s0.3,1.1,0.3,1.8c0,0.9-0.2,1.7-0.6,2.3
	c-0.5,0.7-1.2,1.2-2.1,1.6c-0.9,0.4-2.1,0.6-3.4,0.6c-1,0-1.8-0.1-2.7-0.3c-0.9-0.2-1.6-0.5-2.3-1c-0.7-0.4-1.2-1-1.6-1.7
	c-0.4-0.7-0.6-1.6-0.6-2.6h-3.8c0,1.4,0.3,2.7,0.9,3.8c0.6,1.1,1.5,2,2.5,2.7c1.1,0.8,2.2,1.3,3.5,1.7c1.3,0.3,2.6,0.5,3.9,0.5
	c1.5,0,2.9-0.1,4.1-0.5c1.3-0.4,2.3-0.9,3.2-1.6c0.8-0.6,1.5-1.5,2-2.4c0.5-1,0.7-2,0.7-3.2c0-1.1-0.2-2.1-0.6-3
	c-0.3-0.9-0.9-1.7-1.7-2.4c-0.7-0.7-1.7-1.3-2.9-1.9c-1.2-0.5-2.6-1-4.2-1.5c-1.2-0.3-2.2-0.6-3.1-1c-0.8-0.4-1.5-0.8-2.1-1.2
	c-0.5-0.4-0.9-0.9-1.2-1.4s-0.4-1.1-0.4-1.7c0-0.9,0.2-1.7,0.6-2.4C305.9,445.8,306.5,445.2,307.4,444.8z"/>
</svg>
