<?xml version="1.0" encoding="utf-8"?>
<!-- Generator: Adobe Illustrator 26.3.1, SVG Export Plug-In . SVG Version: 6.00 Build 0)  -->
<svg version="1.1" id="Слой_1" xmlns="http://www.w3.org/2000/svg" xmlns:xlink="http://www.w3.org/1999/xlink" x="0px" y="0px"
	 viewBox="0 0 700 700" style="enable-background:new 0 0 700 700;" xml:space="preserve">
<style type="text/css">
	.st0{fill:#020203;}
	.st1{fill:#FFFFFF;}
</style>
<g>
	<path class="st0" d="M422.7,104.6H278.3c-44.2,0-80,35.8-80,80v331.6c0,44.2,35.8,80,80,80h144.4c44.2,0,80-35.8,80-80V184.6
		C502.7,140.4,466.9,104.6,422.7,104.6z M494.5,525.9c0,5.1-4.5,9.2-10,9.2h-268c-5.5,0-10-4.1-10-9.2V173.5c0-5.1,4.5-9.2,10-9.2
		h268c5.5,0,10,4.1,10,9.2V525.9z"/>
	<path class="st1" d="M321.7,307.8h-8v8h8V307.8z"/>
	<path class="st1" d="M412.2,381.9h-8v8h8V381.9z"/>
	<path class="st1" d="M305.2,283.1h-8v8h8V283.1z"/>
	<path class="st1" d="M412.2,307.8h-8v8h8V307.8z"/>
	<path class="st1" d="M396,348.9h-0.3h-8v8v0.3v8v0.3v8h8h0.3h8h0.2h8v-8v-0.3v-8v-0.3v-8h-8H404H396z M404.2,365.4h-8.5v-8.5h8.5
		V365.4z"/>
	<path class="st1" d="M280.5,283.1h-8v8h8h0.3h7.9v-8h-7.9H280.5z"/>
	<path class="st1" d="M428.6,340.7h-8v8h8V340.7z"/>
	<path class="st1" d="M387.7,316v8v0.3v7.9h8h0.3h7.9v-7.9V324v-8H396h-0.3H387.7z"/>
	<path class="st1" d="M420.4,324.3V324v-8h-8v8v0.3v7.9h8V324.3z"/>
	<path class="st1" d="M428.9,406.3h8h0.2h8v-8v-0.2v-8v-0.3v-7.9h-8v7.9v0.3v8.2h-8.2V406.3z"/>
	<path class="st1" d="M436.9,365.4h-8v8h8V365.4z"/>
	<path class="st1" d="M264.1,291.3h-8v8v0.3v8h8v-8.3h8.2v-8h-8H264.1z"/>
	<path class="st1" d="M329.9,258.4h-8v8h8V258.4z"/>
	<path class="st1" d="M371,225.5h-8v8h8V225.5z"/>
	<path class="st1" d="M420.6,398.1h8v-8v-0.3v-7.9h-8v8.2h-8.2v8h8H420.6z"/>
	<path class="st1" d="M420.6,291.1h8.3v8.5h-8.3v8v0.2v8h8v-8.2h8.3h0.2h8v-8h-8.2v-8.3v-0.2v-8h-8h-0.3h-8h-0.2h-8v8h8H420.6z"/>
	<path class="st1" d="M484.5,164.3h-268c-5.5,0-10,4.1-10,9.2v352.4c0,5.1,4.5,9.2,10,9.2h268c5.5,0,10-4.1,10-9.2V173.5
		C494.5,168.4,490,164.3,484.5,164.3z M395.7,208.8h57.6v57.6h-57.6V208.8z M321.9,282.9v8.2h24.4v-8h-8.2v-8.2h-24.7v-49.6h16.4v-8
		h-8.2v-8.5h8.5v8.2h8v-8.2h41.4v8.2h8.2v8.5h-8.2v16.2h8.2v8.5H371V242h-8.2v-8.2h-8V250v8.5v8v8.5h-8.2v8h32.9v8.2h24.4v-8h-8.2
		v-8.5h41.4v8.2h8.2v8.2h8.2V316h-8.2v8h8.2v16.7H445v-8.2h-8.2v-16.4h-8v24.4h8.2V357h16.4v8.5h-8.2v16.2h8.2v33.1h-49.6v-8.2
		h-24.4v8.2h-8.5v-8.2h-8.2v-8.5h16.5v-8H371v-8.2h-8.2v-8.2h-8v8.2h-8.5v-16.7h8.2v-8h-8.2V349h-8.2v-8.2h-8V357h8.2v16.7h-8.5
		v-8.2h-8v16.2h8.2v8.2h24.7v8.5h-8.2v16.4h-16.7v-8.5h8.2v-8h-24.7v-33.2h8.2v-8h-8.2v-8.5h8.2v-24.3h-8v8.2h-16.4v8h8.2v8.5h-24.9
		v-8.2h-16.5v-16.7h8.5v8.2h16.2v-8.2h24.7v-8H297v-8.5h16.5v-8.3h8.2v-8h-16.2v8.2h-32.9v8h16.5v8.5h-32.9v32.9h-8.5v-74.3h8.5v8.2
		h8v-8.2h41.4v8.2L321.9,282.9z M387.7,258.2v16.7h-8.5v-16.7H387.7z M371.3,258.2v16.7h-8.5v-16.7H371.3z M321.9,406.3v8.5h-8.5
		v-8.5H321.9z M305.2,356.9v57.6h-57.6v-57.6H305.2z M305.2,266.4h-57.6v-57.6h57.6V266.4z M224.8,184.9h64.8v8h-56.8v57.4h-8V184.9
		z M224.8,373.3h8v57.4h56.8v8h-64.8V373.3z M436.3,515H264.6c-14.6,0-26.4-11.8-26.4-26.4c0-14.5,11.8-26.4,26.4-26.4h34.5
		c15.3,0,30.4-3.5,44.1-10.3l6.3-3.1c0.6-0.3,1.2-0.3,1.8,0l6.3,3.1c13.7,6.8,28.8,10.3,44.1,10.3h34.5c14.6,0,26.4,11.8,26.4,26.4
		C462.7,503.2,450.9,515,436.3,515z M476.1,438.7h-64.8v-8h56.8v-57.4h8V438.7z M476.1,250.4h-8V193h-56.8v-8h64.8V250.4z"/>
	<path class="st1" d="M403.9,390.1H396h-0.3h-8v8h8h0.3h7.9V390.1z"/>
	<path class="st1" d="M371,299.6h-8v8h8V299.6z"/>
	<path class="st1" d="M395.7,299.6h-8h-0.2h-8v8.2h-8.2v8.2h-8.5v-8.2h-8v8.2h-8.2h-0.3h-8.2v-8.2h-8v8v0.2v8v0.3v7.9h8V324h8.2h0.3
		h8.2v8.5h-8.2v8v0.2v8h8h0.2h8h0.2h8v-8h-8.2v-8.5h8.2V324h8.3v-8.2h8.2v-8.2h8.2V299.6z"/>
	<path class="st1" d="M403.9,258.2H445v-41.1h-41.1V258.2z M412.2,225.3h24.7V250h-24.7V225.3z"/>
	<path class="st1" d="M297,217h-41.1v41.1H297V217z M288.7,250H264v-24.7h24.7V250z"/>
	<path class="st1" d="M297,365.2h-41.1v41.1H297V365.2z M288.7,398.1H264v-24.7h24.7V398.1z"/>
	<path class="st1" d="M338.1,250.2h-8v8h8V250.2z"/>
	<path class="st1" d="M354.6,291.3h-8v8h8V291.3z"/>
	<path class="st1" d="M346.6,233.5h8v-8h-8h-0.3h-7.9h-0.3h-8v8v0.3v7.9h8v-8.2h8.2H346.6z"/>
	<path class="st1" d="M371.3,365.4H363v8h8h0.3h8v-8v-0.2v-8h-8V365.4z"/>
	<path class="st1" d="M387.5,332.5h-8v8h8V332.5z"/>
	<path class="st1" d="M346.3,266.7v-0.3v-8h-7.9v8v0.3v7.9h7.9V266.7z"/>
	<path class="st0" d="M232.8,373.2h-8v65.5h64.8v-8h-56.8V373.2z"/>
	<path class="st0" d="M232.8,192.9h56.8v-8h-64.8v65.4h8V192.9z"/>
	<path class="st0" d="M411.3,184.9v8h56.8v57.4h8v-65.4H411.3z"/>
	<path class="st0" d="M468.1,430.7h-56.8v8h64.8v-65.5h-8V430.7z"/>
	<path class="st0" d="M362.8,266.4v0.2v8.2h8.5v-8.2v-0.2v-8.3h-8.5V266.4z"/>
	<path class="st0" d="M379.3,266.4v0.2v8.2h8.4v-8.2v-0.2v-8.3h-8.4V266.4z"/>
	<path class="st0" d="M404.2,356.9h-8.5v8.5h8.5V356.9z"/>
	<path class="st0" d="M321.9,406.2h-8.5v8.5h8.5V406.2z"/>
	<path class="st0" d="M412.2,414.7h0.3h8h0.3h8h0.3h8h0.3h8h0.2h8.2v-8.2v-0.3v-8v-0.3v-8v-0.3v-8.2h-8.2v-8v-0.1v-8h8.2v-8.5h-8.2
		h-0.2h-8v-8v-0.3v-8.2h-8.2v-8v-0.2v-8v-0.3v-8h8v8v0.3v8.2h8.2v8.2h8.5v-8.2v-0.2v-8.2h-8.2v-8h8.2v-8.2v-0.3v-8v-0.1v-8.2h-8.2
		v-8.2h-8.2v-8.2h-8.2H429h-8h-0.3h-8h-0.3h-8h-0.2H396v8.5h8.2v8h-8h-0.3h-8h-0.3h-8V283h-8.2h-0.3h-8h-0.2h-8h-0.2h-8v-8h8.2v-8.5
		v-8V250v-8v-0.2v-8h8v8.2h8.2v8.2h8.2h0.3h8.2v-8.5h-8.2v-8v-0.3v-8h8.2v-8.5h-8.2v-8.2h-8.2h-0.3h-8h-0.2h-8h-0.3h-8h-0.3h-8.2
		v8.2h-8v-8.2h-8.5v8.5h8.2v8h-8h-0.2h-8.2v8.2v0.3v8v0.2v8v0.2v8v0.3v8v0.3v8.2h8.2h0.2h8h0.3h8v8.2h8.2v8h-8H338h-8h-0.3h-8v-8.2
		h-8.2h-0.2h-8v-8.2h-8.2h-0.3h-8h-0.3h-8h-0.2h-8h-0.2h-8.2v8.2h-8v-8.2h-8.5v8.2v0.3v8v0.2v8v0.2v8v0.3v8v0.3v8v0.3v8v0.2v8v0.2
		v8.2h8.5v-8.2v-0.2v-8v-0.2v-8v-0.3v-8h8h0.3h8h0.2h8h0.2h8.2v-8.5h-8.2h-0.2h-8v-8h8h0.2h8h0.3h8h0.3h8.2v-8.4h8h0.2h8v8h-8.2v8.2
		h-8h-0.3h-8.2v8.5h8.2h0.3h8v8h-8h-0.3h-8h-0.3h-8.2v8.2h-8h-0.2h-8V324h-8.5v8.2v0.2v8.2h8.2h0.2h8v8.2h8.2h0.3h8h0.3h8.2v-8.5
		h-8.2v-8h8h0.3h8.2v-8.2h8v8v0.2v8v0.2v8h-8.2v8.5h8.2v8h-8.2v8.2v0.3v8v0.2v8v0.3v8.2h8.2h0.2h8h0.3h8v8h-8.2v8.5h8.2h0.3h8.2
		v-8.2v-0.3v-8h8.2v-8.5h-8.2h-0.3h-8H338h-8v-8.2h-8.2v-8v-0.2v-8h8v8.2h8.5v-8.2V365v-8.2h-8.2v-8v-0.3v-8h8v8.2h8.2v8.2h8.2v8
		h-8.2v8.2v0.3v8.2h8.5v-8.2h8v8.2h8.2v8.2h8.2v8h-8h-0.3h-8.2v8.5h8.2v8.2h8.5v-8.2h8h0.3h8h0.3h8v8.2h8.2V414.7z M256.1,307.5v-8
		v-0.2v-8h8h0.3h8v8h-8.2v8.2H256.1z M280.8,291.1h-0.2h-8v-8h8h0.2h8v8H280.8z M297.2,283.1h8v8h-8V283.1z M387.7,316h8h0.3h8v8
		v0.3v8h-8h-0.3h-8v-8V324V316z M412.2,315.7h-8v-8h8V315.7z M436.9,373.3h-8v-8h8V373.3z M428.6,390v8h-8h-0.3h-8v-8h8.2v-8.2h8v8
		L428.6,390z M412.2,381.8v8h-8v-8H412.2z M387.5,332.4v8h-8v-8H387.5z M420.6,348.6v-8h8v8H420.6z M387.7,365.1v-8v-0.3v-8h8h0.3h8
		h0.2h8v8v0.3v8v0.3v8h-8H404h-8h-0.3h-8v-8V365.1z M445.1,390v8v0.3v8h-8h-0.3h-8v-8h8.2v-8.2v-0.3v-8h8v8L445.1,390z M420.4,324.2
		v8h-8v-8v-0.3v-8h8v8V324.2z M420.4,283.1h0.3h8h0.3h8v8v0.2v8.2h8.2v8h-8h-0.3h-8.2v8.2h-8v-8v-0.3v-8h8.2v-8.5h-8.2h-0.3h-8v-8h8
		V283.1z M371,307.5h-8v-8h8V307.5z M354.6,299.3h-8v-8h8V299.3z M346.3,266.6v8h-8v-8v-0.3v-8h8v8V266.6z M338.1,258.1h-8v-8h8
		V258.1z M363,233.5v-8h8v8H363z M338.4,225.5h8h0.3h8v8h-8h-0.3h-8.2v8.2h-8v-8v-0.3v-8h8L338.4,225.5z M321.9,266.4v-8h8v8H321.9z
		 M313.7,315.7v-8h8v8H313.7z M346.6,348.6v-8v-0.2v-8h8.2v-8.5h-8.2h-0.3h-8.2v8.2h-8v-8v-0.3v-8v-0.3v-8h8v8.2h8.2h0.3h8.2v-8.2h8
		v8.2h8.5v-8.2h8.2v-8.2h8h0.3h8v8h-8.2v8.2h-8.2v8.2h-8.2v8.2H363v8.5h8.2v8h-8H363h-8h-0.2h-8.2V348.6z M363,373.3v-8h8.2v-8.2h8
		v8v0.3v8h-8h-0.3L363,373.3z M396,398h-0.3h-8v-8h8h0.3h8v8H396z"/>
	<path class="st0" d="M247.6,266.4h57.6v-57.6h-57.6V266.4z M255.8,217h41.1v41.1h-41.1V217z"/>
	<path class="st0" d="M453.3,208.8h-57.6v57.6h57.6V208.8z M445.1,258.1H404V217h41.1V258.1z"/>
	<path class="st0" d="M247.6,414.5h57.6v-57.6h-57.6V414.5z M255.8,365.1h41.1v41.1h-41.1V365.1z"/>
	<path class="st0" d="M288.8,225.2h-24.7v24.7h24.7V225.2z"/>
	<path class="st0" d="M436.9,225.2h-24.7v24.7h24.7V225.2z"/>
	<path class="st0" d="M288.8,373.3h-24.7V398h24.7V373.3z"/>
	<path class="st0" d="M436.4,462.3h-34.5c-15.3,0-30.4-3.5-44.1-10.3l-6.3-3.1c-0.6-0.3-1.2-0.3-1.8,0l-6.3,3.1
		c-13.7,6.8-28.8,10.3-44.1,10.3h-34.5c-14.6,0-26.4,11.8-26.4,26.4s11.8,26.4,26.4,26.4h171.7c14.6,0,26.4-11.8,26.4-26.4
		C462.8,474.1,451,462.3,436.4,462.3z M293.4,496.9c-0.3,0.7-0.8,1.2-1.4,1.7c-0.6,0.5-1.4,0.8-2.2,1.1c-0.9,0.2-1.8,0.4-2.9,0.4
		c-1,0-1.9-0.1-2.9-0.4c-0.9-0.3-1.8-0.6-2.6-1.2c-0.8-0.5-1.4-1.2-1.8-2c-0.5-0.8-0.7-1.8-0.7-2.9h4c0,0.6,0.1,1.1,0.3,1.5
		c0.2,0.4,0.5,0.8,0.8,1c0.4,0.3,0.8,0.5,1.2,0.6c0.5,0.1,1,0.2,1.6,0.2c0.7,0,1.3-0.1,1.7-0.3c0.4-0.2,0.8-0.5,1-0.8
		c0.2-0.4,0.3-0.8,0.3-1.2s-0.1-0.7-0.2-0.9c-0.1-0.3-0.3-0.5-0.6-0.8c-0.3-0.2-0.7-0.5-1.2-0.7c-0.5-0.2-1.1-0.5-1.9-0.7
		c-0.9-0.3-1.7-0.6-2.5-1c-0.8-0.4-1.5-0.8-2.1-1.3s-1.1-1-1.4-1.7c-0.3-0.6-0.5-1.4-0.5-2.2c0-0.8,0.2-1.5,0.5-2.2
		c0.4-0.7,0.9-1.2,1.5-1.7c0.6-0.5,1.4-0.8,2.3-1.1c0.9-0.3,1.9-0.4,2.9-0.4c1.4,0,2.7,0.3,3.8,0.8c1.1,0.5,1.9,1.2,2.5,2.1
		c0.6,0.9,0.9,1.9,0.9,3.1h-4c0-0.6-0.1-1.1-0.4-1.5c-0.2-0.4-0.6-0.8-1.1-1c-0.5-0.2-1.1-0.4-1.8-0.4s-1.3,0.1-1.7,0.3
		c-0.5,0.2-0.8,0.5-1,0.8c-0.2,0.4-0.4,0.7-0.4,1.2c0,0.3,0.1,0.6,0.2,0.9c0.2,0.3,0.4,0.5,0.8,0.8c0.4,0.3,0.7,0.4,1.2,0.6
		s1,0.4,1.7,0.6c1.1,0.3,2,0.7,2.8,1.1c0.8,0.4,1.5,0.9,2,1.4s1,1.1,1.2,1.7c0.3,0.6,0.4,1.4,0.4,2.2
		C293.9,495.5,293.7,496.3,293.4,496.9z M303.1,493.4c0.1,0.8,0.4,1.4,0.7,1.9s0.7,0.9,1.2,1.2c0.5,0.3,1.1,0.4,1.8,0.4
		c0.8,0,1.5-0.1,2.1-0.4c0.6-0.3,1-0.7,1.3-1.2c0.3-0.5,0.5-1.2,0.5-2h4c-0.1,1.3-0.4,2.5-1.1,3.5c-0.6,1-1.5,1.8-2.7,2.4
		c-1.1,0.6-2.5,0.9-4.1,0.9c-1.3,0-2.4-0.2-3.4-0.6s-1.8-1.1-2.5-1.9c-0.7-0.8-1.2-1.8-1.6-2.9s-0.6-2.4-0.6-3.9v-1.3
		c0-1.4,0.2-2.7,0.6-3.9s0.9-2.1,1.6-3c0.7-0.9,1.6-1.4,2.5-1.9c1-0.4,2.1-0.7,3.3-0.7c1.6,0,3,0.3,4.1,0.9c1.1,0.6,2,1.4,2.6,2.4
		c0.6,1,1,2.2,1.1,3.5h-4c-0.1-0.8-0.2-1.4-0.5-2c-0.3-0.6-0.7-1-1.2-1.2c-0.5-0.3-1.3-0.4-2.1-0.4c-0.7,0-1.3,0.1-1.8,0.4
		s-0.9,0.6-1.3,1.1c-0.3,0.5-0.6,1.1-0.8,1.9s-0.2,1.7-0.2,2.7v1.4C302.8,491.7,302.9,492.6,303.1,493.4z M332.4,499.8l-1.3-4.1h-7
		l-1.4,4.1h-4.3l7.3-19.5h3.7l7.3,19.5H332.4z M357.1,499.8h-4l-7.8-13.1v13.1h-4v-19.5h4l7.8,13.1v-13.1h4V499.8z M422,480.3
		l-0.4,13.5h-3.2l-0.4-13.5H422z M393.4,499.8h-4v-5.6l0.4-9.1l-5.3,14.6h-2.7l-5.3-14.6l0.4,9v5.6h-4v-19.4h5.2l5,14.3l5-14.3h5.3
		V499.8z M412.8,499.8h-13.1v-19.5h13.1v3.2h-9.1v4.8h7.7v3.1h-7.7v5.4h9.1V499.8z M421.5,499.4c-0.4,0.4-0.9,0.6-1.6,0.6
		c-0.7,0-1.2-0.2-1.6-0.6c-0.4-0.4-0.6-0.8-0.6-1.4s0.2-1,0.6-1.4s0.9-0.6,1.6-0.6c0.7,0,1.2,0.2,1.6,0.6c0.4,0.4,0.6,0.8,0.6,1.4
		S421.9,499,421.5,499.4z"/>
	<path class="st0" d="M325.1,492.5h4.9l-2.5-7.5L325.1,492.5z"/>
	<path class="st1" d="M421.5,493.8l0.4-13.5h-4.1l0.5,13.5H421.5z"/>
	<path class="st1" d="M421.4,496.6c-0.4-0.4-0.9-0.6-1.6-0.6c-0.6,0-1.2,0.2-1.6,0.6c-0.4,0.4-0.6,0.9-0.6,1.4c0,0.6,0.2,1,0.6,1.4
		c0.4,0.4,0.9,0.6,1.6,0.6s1.2-0.2,1.6-0.6c0.4-0.4,0.6-0.9,0.6-1.4C422,497.4,421.8,497,421.4,496.6z"/>
	<path class="st1" d="M403.6,491.3h7.8v-3.1h-7.8v-4.8h9.1v-3.1h-9.1h-1.3h-2.7v19.5h2.7h1.3h9.1v-3.2h-9.1V491.3z"/>
	<path class="st1" d="M390,480.3h-1.9l-5,14.3l-5-14.3h-1.8h-1.6h-1.8v19.5h4v-5.6l-0.4-9l5.3,14.6h2.7l5.3-14.6l-0.5,9v5.6h4.1
		v-19.5h-1.9H390z"/>
	<path class="st1" d="M353,493.4l-7.8-13.1h-4v19.5h4v-13.1l7.8,13.1h4.1v-19.5H353V493.4z"/>
	<path class="st1" d="M328.3,480.3h-1.7h-1l-7.3,19.5h4.3l1.4-4.1h7l1.4,4.1h4.3l-7.3-19.5H328.3z M325,492.5l2.5-7.5l2.5,7.5H325z"
		/>
	<path class="st1" d="M303,486.6c0.2-0.8,0.4-1.4,0.8-1.9s0.8-0.9,1.3-1.1s1.1-0.4,1.8-0.4c0.9,0,1.6,0.1,2.1,0.4s0.9,0.7,1.2,1.2
		c0.3,0.6,0.4,1.2,0.5,2h4c-0.1-1.3-0.5-2.5-1.1-3.5c-0.6-1-1.5-1.8-2.6-2.4c-1.1-0.6-2.5-0.9-4.1-0.9c-1.2,0-2.3,0.2-3.3,0.7
		c-1,0.4-1.8,1.1-2.5,1.9s-1.3,1.8-1.6,3c-0.4,1.2-0.6,2.4-0.6,3.9v1.4c0,1.4,0.2,2.7,0.6,3.9c0.4,1.1,0.9,2.1,1.6,2.9
		c0.7,0.8,1.6,1.4,2.5,1.9c1,0.4,2.1,0.6,3.4,0.6c1.6,0,3-0.3,4.1-0.9c1.1-0.6,2-1.4,2.7-2.4c0.6-1,1-2.2,1.1-3.5h-4
		c-0.1,0.8-0.2,1.4-0.5,2c-0.3,0.5-0.7,0.9-1.3,1.2c-0.5,0.3-1.2,0.4-2.1,0.4c-0.7,0-1.3-0.1-1.8-0.4s-0.9-0.7-1.2-1.2
		s-0.5-1.2-0.7-1.9c-0.2-0.8-0.2-1.7-0.2-2.7v-1.5C302.8,488.3,302.9,487.4,303,486.6z"/>
	<path class="st1" d="M292.2,490.8c-0.6-0.5-1.2-1-2-1.4c-0.8-0.4-1.7-0.8-2.8-1.1c-0.6-0.2-1.2-0.4-1.7-0.6
		c-0.5-0.2-0.9-0.4-1.2-0.6s-0.6-0.5-0.8-0.8c-0.2-0.3-0.2-0.6-0.2-0.9c0-0.4,0.1-0.8,0.4-1.2c0.2-0.4,0.6-0.6,1-0.8
		c0.5-0.2,1-0.3,1.7-0.3s1.3,0.1,1.8,0.4c0.5,0.3,0.8,0.6,1.1,1c0.2,0.4,0.4,0.9,0.4,1.5h4c0-1.2-0.3-2.2-0.9-3.1
		c-0.6-0.9-1.4-1.6-2.5-2.1c-1.1-0.5-2.3-0.8-3.8-0.8c-1.1,0-2,0.1-2.9,0.4c-0.9,0.3-1.6,0.6-2.3,1.1c-0.6,0.5-1.1,1.1-1.5,1.7
		c-0.4,0.7-0.5,1.4-0.5,2.2c0,0.8,0.2,1.6,0.5,2.2s0.8,1.2,1.4,1.7c0.6,0.5,1.3,0.9,2.1,1.3s1.6,0.7,2.5,1c0.8,0.3,1.4,0.5,1.9,0.7
		c0.5,0.2,0.9,0.5,1.2,0.7c0.3,0.2,0.5,0.5,0.6,0.8c0.1,0.3,0.2,0.6,0.2,0.9c0,0.4-0.1,0.8-0.3,1.2c-0.2,0.3-0.6,0.6-1,0.8
		c-0.5,0.2-1,0.3-1.7,0.3c-0.6,0-1.1-0.1-1.6-0.2c-0.5-0.1-0.9-0.3-1.2-0.6c-0.3-0.3-0.6-0.6-0.8-1s-0.3-0.9-0.3-1.5h-4
		c0,1.1,0.2,2.1,0.7,2.9s1.1,1.5,1.8,2c0.8,0.5,1.6,0.9,2.6,1.2c0.9,0.3,1.9,0.4,2.9,0.4c1.1,0,2-0.1,2.9-0.4
		c0.9-0.3,1.6-0.6,2.2-1.1c0.6-0.5,1.1-1,1.4-1.7c0.3-0.7,0.5-1.4,0.5-2.3c0-0.8-0.1-1.5-0.4-2.2
		C293.2,491.9,292.8,491.3,292.2,490.8z"/>
</g>
</svg>
